<svg xmlns="http://www.w3.org/2000/svg" width="19" height="22" viewBox="0 0 19 22">
    <g fill="#FFF" fill-rule="evenodd" stroke="#FFF" stroke-linecap="round" stroke-linejoin="round">
        <path stroke-width=".5" d="M15.731 7.083c0-.172.142-.312.316-.312.175 0 .317.14.317.312V19.07c0 .53-.22 1.01-.573 1.36a1.958 1.958 0 0 1-1.377.567H4.61a1.957 1.957 0 0 1-1.377-.567 1.91 1.91 0 0 1-.574-1.36V7.083c0-.172.142-.312.317-.312.174 0 .316.14.316.312V19.07c0 .357.149.683.387.918.239.236.569.384.93.384h9.804c.361 0 .69-.148.929-.384a1.29 1.29 0 0 0 .388-.917V7.083h.001z"/>
        <path stroke-width=".5" d="M7.153 17.09c0 .136-.142.246-.316.246-.175 0-.317-.11-.317-.246V8.336c0-.136.142-.246.317-.246.174 0 .316.11.316.246v8.754zM9.828 17.09c0 .136-.142.246-.316.246-.175 0-.317-.11-.317-.246V8.336c0-.136.142-.246.317-.246.174 0 .316.11.316.246v8.754zM12.504 17.09c0 .136-.142.246-.317.246-.174 0-.316-.11-.316-.246V8.336c0-.136.142-.246.316-.246.175 0 .317.11.317.246v8.754zM6.968 2.927a.314.314 0 0 1-.316.312.314.314 0 0 1-.316-.312c0-.53.22-1.012.572-1.361C7.262 1.216 7.75 1 8.286 1h2.451c.536 0 1.024.217 1.377.566.353.35.573.832.573 1.36a.314.314 0 0 1-.316.313.314.314 0 0 1-.316-.312c0-.357-.149-.683-.388-.919a1.323 1.323 0 0 0-.93-.383h-2.45c-.362 0-.691.147-.93.383a1.29 1.29 0 0 0-.389.919z"/>
        <path fill-rule="nonzero" stroke-width=".2" d="M2.159 3.825h14.705c.31 0 .594.125.8.329h.001c.206.204.333.484.333.79v.808a.314.314 0 0 1-.317.312H1.342a.314.314 0 0 1-.317-.312v-.808c0-.305.128-.586.333-.79h.002c.205-.203.49-.33.799-.33zm14.706.625H2.159a.5.5 0 0 0-.353.144l-.002.002a.487.487 0 0 0-.146.348v.495h15.707v-.495a.489.489 0 0 0-.147-.348l-.001-.002a.499.499 0 0 0-.352-.144z"/>
    </g>
</svg>
