<svg xmlns="http://www.w3.org/2000/svg" width="19" height="20" viewBox="0 0 19 20">
    <path fill="#FFAC81" fill-rule="nonzero" stroke="#FFAC81" stroke-width=".5" d="M17.49 6.763c.358.47.53.975.508 1.494a2.334 2.334 0 0 1-.475 1.295c.237.61.329 1.57-.465 2.315-.581.546-1.569.79-2.936.723-.962-.045-1.767-.23-1.8-.237h-.003a14.25 14.25 0 0 1-.574-.12c-.015.24.025.839.457 2.186.512 1.604.482 2.83-.095 3.651-.608.862-1.577.93-1.862.93a.908.908 0 0 1-.706-.331c-.406-.486-.358-1.382-.307-1.796-.483-1.332-1.836-4.6-2.98-5.507-.022-.015-.04-.034-.059-.052a4.055 4.055 0 0 1-.717-1.107c-.215.12-.46.188-.724.188h-2.23C1.68 10.395 1 9.691 1 8.83V2.713c0-.866.684-1.566 1.521-1.566h2.231c.326 0 .63.105.878.286l.86-.106a35.789 35.789 0 0 1 4.874-.274C11.8 1.019 12.21 1 12.59 1c.655 0 1.225.053 1.7.158 1.12.245 1.884.734 2.272 1.453.296.55.296 1.095.249 1.442.727.677.855 1.426.83 1.953-.015.305-.08.565-.15.757zM2.52 2.163a.543.543 0 0 0-.534.55v6.12c0 .305.242.55.534.55h2.231a.543.543 0 0 0 .534-.55V2.716a.543.543 0 0 0-.534-.55h-2.23v-.003zm14.033 5.04a.517.517 0 0 1-.066-.613c0-.004.15-.268.168-.629.026-.493-.205-.93-.688-1.302a.522.522 0 0 1-.168-.58c0-.004.157-.5-.099-.971-.245-.452-.79-.776-1.616-.956-.662-.147-1.562-.173-2.666-.083h-.051c-2.352-.053-4.729.263-4.754.267H6.61l-.37.045c.023.106.034.219.034.332v6.12c0 .162-.026.32-.07.467.066.252.249.813.68 1.291 1.642 1.34 3.248 5.86 3.317 6.056a.49.49 0 0 1 .022.253c-.062.421-.04.937.048 1.091.194-.004.717-.06 1.031-.508.373-.53.358-1.48-.044-2.736-.614-1.916-.665-2.925-.18-3.37a.78.78 0 0 1 .798-.146c.223.053.435.098.637.132l.047.01c1.123.253 3.134.407 3.833-.248.592-.557.172-1.294.124-1.373a.514.514 0 0 1 .088-.655c.003-.004.387-.377.406-.877.014-.335-.14-.678-.457-1.017z"/>
</svg>
