<svg xmlns="http://www.w3.org/2000/svg" width="18" height="21" viewBox="0 0 18 21">
    <g fill="#333" fill-rule="nonzero" stroke="#333" stroke-linecap="round" stroke-linejoin="round" stroke-width=".5">
        <path d="M13.907 9.807l-.503-3.173c-.368-2.42-2.21-3.773-3.676-4.196A6.9 6.9 0 0 0 8.457 2.2l-.032-.203C8.27 1.025 7.373.356 6.423.507c-.95.15-1.597 1.063-1.442 2.036l.036.233a6.8 6.8 0 0 0-1.02.573c-1.395.95-2.65 2.908-2.312 5.14l.503 3.174c.357 2.253-.114 4.31-1.399 6.112a.364.364 0 0 0-.03.37c.06.12.178.197.309.2l3.36.06c.627.01 1.201.01 1.746-.002.792 1.111 2.095 1.699 3.385 1.495 1.29-.205 2.348-1.166 2.757-2.469.52-.156 1.064-.332 1.653-.535l3.177-1.096a.351.351 0 0 0 .232-.285.362.362 0 0 0-.143-.342c-1.863-1.38-2.983-3.184-3.328-5.364zM5.669 2.433a1.06 1.06 0 0 1 .866-1.221 1.06 1.06 0 0 1 1.2.894l.011.064a6.772 6.772 0 0 0-2.064.344l-.013-.08zm3.778 16.759c-.872.138-1.757-.177-2.395-.82.783-.04 1.508-.113 2.226-.227.72-.114 1.435-.27 2.195-.474-.409.81-1.154 1.382-2.026 1.52zm4.295-2.976c-.643.222-1.233.413-1.794.578h-.002c-.248.073-.488.14-.725.203l-.005.002c-.217.057-.429.11-.64.159l-.118.027c-.182.041-.362.08-.543.116l-.11.022c-.426.083-.848.15-1.279.203l-.116.013a20.717 20.717 0 0 1-1.311.113l-.024.002c-.242.013-.49.023-.745.03h-.003c-.586.017-1.21.018-1.892.006l-2.712-.048c1.117-1.824 1.506-3.869 1.154-6.088l-.502-3.173c-.292-1.919.8-3.611 2.012-4.437.36-.246.743-.447 1.139-.608.003-.002.007-.002.01-.003a6.194 6.194 0 0 1 2.607-.438l.013-.002c.465.025.93.1 1.388.232 1.364.394 2.874 1.664 3.171 3.617l.503 3.174c.337 2.129 1.4 3.989 3.087 5.417l-2.563.883z"/>
        <path d="M9.267 4.155C7.833 3.742 6.199 4 4.972 4.836c-.7.477-1.816 1.725-1.565 3.377.03.195.208.33.399.301h.002c.189-.03.319-.21.289-.405-.198-1.299.702-2.294 1.265-2.678 1.061-.724 2.48-.947 3.72-.589a.345.345 0 0 0 .429-.246.36.36 0 0 0-.244-.44z"/>
    </g>
</svg>
