<svg xmlns="http://www.w3.org/2000/svg" width="23" height="18" viewBox="0 0 23 18">
    <g fill="#000" fill-rule="evenodd">
        <path fill-rule="nonzero" d="M22.637 15.771h-.612a10.858 10.858 0 0 0-.494-2.9 10.734 10.734 0 0 0-3.533-5.16 10.45 10.45 0 0 0-2.723-1.572 10.314 10.314 0 0 0-3.39-.7l1.075-1.095a1.251 1.251 0 0 0 0-1.746 1.196 1.196 0 0 0-1.46-.2 1.196 1.196 0 0 0-1.46.2c-.23.233-.356.543-.356.873 0 .33.127.64.356.873l1.076 1.094A10.358 10.358 0 0 0 6.54 6.69a.373.373 0 0 0-.15.5.362.362 0 0 0 .492.152 9.642 9.642 0 0 1 4.56-1.172.359.359 0 0 0 .117 0 9.636 9.636 0 0 1 3.455.658 9.752 9.752 0 0 1 2.536 1.464 9.982 9.982 0 0 1 3.29 4.803c.272.865.426 1.763.459 2.676H1.702A10.007 10.007 0 0 1 5.7 8.1a.374.374 0 0 0 .077-.516.362.362 0 0 0-.507-.079 10.676 10.676 0 0 0-3.128 3.72A10.778 10.778 0 0 0 .975 15.77H.363c-.2 0-.363.166-.363.37 0 1.018.815 1.846 1.816 1.846h19.368c1.001 0 1.816-.828 1.816-1.846a.366.366 0 0 0-.363-.37zM11.5 4.784l-.947-.962a.496.496 0 0 1-.142-.351c0-.133.05-.257.142-.351a.48.48 0 0 1 .69 0 .359.359 0 0 0 .514 0 .48.48 0 0 1 .69 0c.19.193.19.508 0 .702l-.947.962zm9.684 12.465H1.816c-.474 0-.877-.31-1.027-.739H22.21c-.15.43-.553.739-1.027.739z"/>
        <path d="M2.073 3.568C.863 2.338 2.055.673 2.107.603a.373.373 0 0 0-.073-.516.36.36 0 0 0-.509.074 4.24 4.24 0 0 0-.604 1.294c-.274 1.02-.054 1.932.638 2.635 1.209 1.23.017 2.895-.034 2.965a.373.373 0 0 0 .073.517.357.357 0 0 0 .508-.074 4.24 4.24 0 0 0 .605-1.294c.274-1.021.053-1.933-.638-2.636zM5.946 2.09c-.295-.3-.387-.612-.281-.956.088-.287.28-.49.281-.49a.374.374 0 0 0 0-.523.359.359 0 0 0-.513 0 2.09 2.09 0 0 0-.451.76c-.202.616-.042 1.23.45 1.732.296.3.388.615.282.964a1.41 1.41 0 0 1-.284.499.374.374 0 0 0 .004.52.359.359 0 0 0 .514-.002c.03-.032.306-.324.45-.766.2-.62.04-1.237-.452-1.737zM21.441 4.09c.691-.703.912-1.614.638-2.636a4.239 4.239 0 0 0-.604-1.293.359.359 0 0 0-.508-.074.374.374 0 0 0-.074.516c.052.07 1.244 1.735.034 2.965-.691.703-.912 1.615-.638 2.636.198.737.588 1.272.605 1.294a.36.36 0 0 0 .507.074.374.374 0 0 0 .074-.517c-.051-.07-1.243-1.735-.034-2.965zM17.286 3.577c-.106-.349-.014-.664.281-.964.493-.501.653-1.116.451-1.732a2.092 2.092 0 0 0-.45-.76.358.358 0 0 0-.512 0 .375.375 0 0 0-.004.52c.002.003.195.206.283.493.106.344.014.657-.281.957-.493.5-.653 1.117-.451 1.737.143.442.418.734.45.766a.357.357 0 0 0 .51.004.375.375 0 0 0 .007-.522 1.41 1.41 0 0 1-.284-.5z"/>
    </g>
</svg>
