<svg xmlns="http://www.w3.org/2000/svg" viewBox="0 0 15 19">
    <g fill="#000" fill-rule="evenodd">
        <path fill-rule="nonzero" d="M12.867 4.495C11.309 1.596 9.403 0 7.5 0S3.691 1.596 2.133 4.495C.873 6.84.026 9.763.026 11.768.026 15.756 3.38 19 7.5 19s7.474-3.244 7.474-7.232c0-2.005-.847-4.928-2.107-7.273zM2.94 4.9c.65-1.209 1.39-2.211 2.14-2.898C5.893 1.257 6.708.88 7.5.88s1.607.377 2.42 1.122c.75.687 1.49 1.69 2.14 2.899.945 1.757 1.645 3.843 1.9 5.567h-1.092v-.422a.447.447 0 0 0-.455-.44.447.447 0 0 0-.454.44v.422h-.855v-.422a.447.447 0 0 0-.454-.44.447.447 0 0 0-.455.44v.422H9.34v-.95a.447.447 0 0 0-.454-.44.447.447 0 0 0-.455.44v.95h-.854v-.422a.447.447 0 0 0-.455-.44.447.447 0 0 0-.454.44v.422h-.855v-.422a.447.447 0 0 0-.454-.44.447.447 0 0 0-.455.44v.422H4.05v-.95a.447.447 0 0 0-.455-.44.447.447 0 0 0-.455.44v.95h-2.1c.255-1.724.955-3.81 1.9-5.568zM7.5 18.12c-3.62 0-6.565-2.85-6.565-6.352a7.4 7.4 0 0 1 .013-.42h13.104a7.4 7.4 0 0 1 .013.42c0 3.503-2.945 6.352-6.565 6.352z"/>
        <path d="M9.182 12a.457.457 0 0 0-.394-.22.458.458 0 0 0-.393.22l-.462.774a.428.428 0 0 0 0 .44c.08.135.23.22.393.22h.924a.458.458 0 0 0 .394-.22.428.428 0 0 0 0-.44l-.462-.775z"/>
    </g>
</svg>
