<svg xmlns="http://www.w3.org/2000/svg" width="28" height="36" viewBox="0 0 28 36">
    <g fill="none" fill-rule="evenodd">
        <g fill="#333">
            <path fill-rule="nonzero" d="M15.166 21.727a.478.478 0 0 0-.212-.051.468.468 0 0 0-.1.02c-.132-.01-.263-.02-.398-.02h-.508a5.223 5.223 0 0 0 1.006-3.087c.826 0 1.495-.691 1.495-1.544 0-.852-.67-1.543-1.495-1.543v-2.007l.48-2.476.854-2.206h.161c1.652.006 2.996-1.371 3.002-3.076.006-1.705-1.329-3.092-2.98-3.099a2.922 2.922 0 0 0-1.6.473c-.436-2.084-2.425-3.408-4.443-2.96a3.73 3.73 0 0 0-2.213 1.472 2.926 2.926 0 0 0-4.221-.27C2.756 2.48 2.639 4.433 3.732 5.71a2.968 2.968 0 0 0 1.752 1.002v2.564l-.489 2.52a.398.398 0 0 0 0 .055c0 .016-.01.03-.01.047v3.601c-.826 0-1.495.691-1.495 1.544 0 .852.67 1.544 1.495 1.544 0 1.114.354 2.198 1.007 3.087h-.508C2.456 21.677.004 24.21 0 27.336v3.087c0 .284.223.514.498.514H19.44c.275 0 .498-.23.498-.514v-3.087c-.003-2.84-2.044-5.239-4.772-5.609zM4.986 17.56a.507.507 0 0 1-.5-.515c0-.284.224-.514.5-.514v1.029zm8.971-2.65a3.045 3.045 0 0 1-1.556-1.299l1.556.268v1.032zm.104-2.057L6.073 11.48l.303-1.563 7.988 1.374-.303 1.562zm-3.3.475c-.783 1.188-3.328 1.572-4.779 1.643v-2.463l4.778.82zm4.691 3.717a.507.507 0 0 1-.498.515v-1.03c.275 0 .498.23.498.515zM3.988 3.668c-.002-1.135.888-2.057 1.987-2.059A1.988 1.988 0 0 1 7.79 2.812a.511.511 0 0 0 .458.3.498.498 0 0 0 .452-.309C9.302 1.37 10.916.71 12.305 1.331c1.002.448 1.651 1.467 1.652 2.594 0 .083-.006.164-.012.246a.51.51 0 0 0 .459.552.492.492 0 0 0 .438-.206c.372-.534.97-.85 1.607-.85 1.101 0 1.994.922 1.994 2.059 0 1.136-.893 2.058-1.994 2.058h-.498a.499.499 0 0 0-.463.323l-.848 2.188-8.16-1.404v-2.65a.507.507 0 0 0-.498-.515c-1.101 0-1.994-.922-1.994-2.058zm1.994 14.92v-2.585c1.25-.054 4.291-.35 5.507-1.944a3.94 3.94 0 0 0 2.468 1.91v2.62c0 2.273-1.785 4.116-3.987 4.116-2.203 0-3.988-1.843-3.988-4.116zm-.997 7.719v3.601H3.49V27.85a.507.507 0 0 0-.499-.514.507.507 0 0 0-.498.514v2.058H.998v-2.572c.002-2.557 2.01-4.628 4.486-4.631H6.989a4.824 4.824 0 0 0 5.961 0h1.506v1.619l-9.05 1.475a.51.51 0 0 0-.42.508zm13.957 3.601h-1.994v-1.543a.507.507 0 0 0-.499-.515.507.507 0 0 0-.498.515v1.543H5.982v-3.162l9.05-1.475a.51.51 0 0 0 .42-.508v-1.939c2.04.482 3.486 2.353 3.49 4.512v2.572z"/>
            <path d="M7.976 16.53a.507.507 0 0 0-.499.515v.515c0 .284.224.514.499.514s.498-.23.498-.514v-.515a.507.507 0 0 0-.498-.514zM11.963 16.53a.507.507 0 0 0-.498.515v.515c0 .284.223.514.498.514.276 0 .499-.23.499-.514v-.515a.507.507 0 0 0-.499-.514zM12.361 19.823a.488.488 0 0 0-.697-.102 2.77 2.77 0 0 1-3.39 0 .488.488 0 0 0-.697.102.526.526 0 0 0 .1.72 3.746 3.746 0 0 0 4.585 0 .526.526 0 0 0 .1-.72z"/>
            <path fill-rule="nonzero" d="M7.727 27.336a.76.76 0 0 0-.748.771.76.76 0 0 0 .748.772.76.76 0 0 0 .747-.772.76.76 0 0 0-.747-.771zm0 1.029a.253.253 0 0 1-.25-.258c0-.142.112-.257.25-.257.137 0 .249.115.249.257a.253.253 0 0 1-.25.258z"/>
        </g>
        <circle cx="18" cy="26" r="8" fill="#333" stroke="#F7F9F9" stroke-width="3"/>
        <g stroke="#FFF" stroke-linecap="round" stroke-linejoin="round" stroke-width="1.5">
            <path d="M15.35 23l5.051 4.91M20.401 23l-5.05 4.91"/>
        </g>
    </g>
</svg>
