<svg xmlns="http://www.w3.org/2000/svg" viewBox="0 0 25 17">
    <g fill="#000" fill-rule="evenodd">
        <path fill-rule="nonzero" d="M23.3 0H1.7C.764 0 0 .772 0 1.722v12.244a1.72 1.72 0 0 0 1.296 1.672v.515c0 .467.375.847.837.847h.864c.461 0 .837-.38.837-.847v-.465h17.332v.465c0 .467.376.847.837.847h.864c.462 0 .837-.38.837-.847v-.515A1.72 1.72 0 0 0 25 13.966V1.722C25 .772 24.237 0 23.3 0zM3.023 16.153a.027.027 0 0 1-.027.027h-.864a.027.027 0 0 1-.027-.027v-.465h.918v.465zM1.7 14.868a.897.897 0 0 1-.891-.902V1.722c0-.498.4-.902.89-.902h17.306v14.02l.002.028H1.7zm21.193 1.285a.027.027 0 0 1-.027.027h-.864a.027.027 0 0 1-.027-.027v-.465h.918v.465zm1.296-2.187c0 .498-.4.902-.89.902h-3.485l.001-.027V.82H23.3c.491 0 .891.404.891.902v12.244z"/>
        <path fill-rule="nonzero" d="M17.684 1.75H2.133a.407.407 0 0 0-.405.41v11.369c0 .226.181.41.405.41h15.55a.407.407 0 0 0 .406-.41V2.159a.407.407 0 0 0-.405-.41zm-.405 11.369H2.538V2.569h14.74v10.55zM22.435 2.624h-.864a.843.843 0 0 0-.837.847v.875c0 .467.376.847.837.847h.864c.462 0 .837-.38.837-.847V3.47a.843.843 0 0 0-.837-.847zm.027 1.722a.027.027 0 0 1-.027.027h-.864a.027.027 0 0 1-.027-.027V3.47c0-.015.012-.027.027-.027h.864c.015 0 .027.012.027.027v.875z"/>
        <path d="M22.867 6.122H21.14a.407.407 0 0 0-.405.41c0 .227.182.41.405.41h1.728a.407.407 0 0 0 .405-.41.407.407 0 0 0-.405-.41zM22.867 9.62H21.14a.407.407 0 0 0-.405.41c0 .227.182.41.405.41h1.728a.407.407 0 0 0 .405-.41.407.407 0 0 0-.405-.41zM22.867 7.871H21.14a.407.407 0 0 0-.405.41c0 .227.182.41.405.41h1.728a.407.407 0 0 0 .405-.41.407.407 0 0 0-.405-.41zM9.071 9.012c0 .72.285 1.103.513 1.411.204.275.351.474.351.92 0 .226.182.41.405.41a.407.407 0 0 0 .405-.41c0-.72-.284-1.104-.513-1.412-.204-.275-.35-.473-.35-.919 0-.447.146-.645.35-.92.229-.309.513-.693.513-1.413 0-.72-.284-1.104-.513-1.412-.204-.276-.35-.475-.35-.922a.407.407 0 0 0-.406-.41.407.407 0 0 0-.405.41c0 .72.285 1.105.513 1.413.204.276.351.475.351.921 0 .447-.147.646-.35.92-.23.31-.514.693-.514 1.413zM11.257 9.421a.403.403 0 0 0 .326-.166c.29-.391.89-1.204.89-2.575 0-.558-.1-1.083-.295-1.562a.403.403 0 0 0-.529-.222.412.412 0 0 0-.22.535c.156.38.234.8.234 1.248 0 1.096-.452 1.712-.726 2.08a.412.412 0 0 0 .32.662zM8.009 10.816a.412.412 0 0 0 .374-.566 3.281 3.281 0 0 1-.23-1.238c0-1.1.457-1.717.73-2.086a.42.42 0 0 0 .02-.464.402.402 0 0 0-.692.005c-.297.402-.868 1.208-.868 2.545 0 .553.098 1.074.291 1.55a.405.405 0 0 0 .375.254z"/>
    </g>
</svg>
