<svg xmlns="http://www.w3.org/2000/svg" width="30" height="30" viewBox="0 0 30 30">
    <g fill="#FFAC81" fill-rule="evenodd">
        <path fill-rule="nonzero" d="M27.668 11.781a2.006 2.006 0 0 0 .501-2.052 1.973 1.973 0 0 0-1.597-1.362l-6.564-.965a.396.396 0 0 1-.298-.22l-2.936-6.018A1.964 1.964 0 0 0 15 .048c-.758 0-1.438.428-1.774 1.116L10.29 7.183a.396.396 0 0 1-.298.219l-6.564.965c-.75.11-1.362.632-1.597 1.362a2.006 2.006 0 0 0 .5 2.052l4.75 4.685a.403.403 0 0 1 .115.355l-1.122 6.615a2 2 0 0 0 .787 1.958c.614.451 1.412.51 2.084.152l5.871-3.123a.391.391 0 0 1 .368 0l5.872 3.123a1.955 1.955 0 0 0 2.083-.153 2 2 0 0 0 .787-1.957l-1.121-6.615a.404.404 0 0 1 .113-.355l4.75-4.685z"/>
        <path d="M24.245 1.164a.785.785 0 0 0-1.105.177l-.84 1.17a.807.807 0 0 0 .175 1.118.782.782 0 0 0 1.105-.177l.84-1.17a.807.807 0 0 0-.175-1.118zM7.697 2.506l-.84-1.17a.786.786 0 0 0-1.106-.177.807.807 0 0 0-.175 1.118l.84 1.17a.787.787 0 0 0 1.106.177.807.807 0 0 0 .175-1.118zM2.903 18.014a.79.79 0 0 0-.997-.515l-1.359.447a.803.803 0 0 0 .244 1.563.782.782 0 0 0 .245-.04l1.36-.446a.803.803 0 0 0 .507-1.01zM15 26.904a.796.796 0 0 0-.791.801v1.446c0 .442.354.801.791.801a.796.796 0 0 0 .792-.8v-1.447c0-.442-.355-.8-.792-.8zM29.453 17.948l-1.36-.447a.79.79 0 0 0-.996.514.803.803 0 0 0 .508 1.009l1.359.447a.793.793 0 0 0 .997-.514.803.803 0 0 0-.508-1.01z"/>
    </g>
</svg>
