<svg xmlns="http://www.w3.org/2000/svg" width="13" height="20" viewBox="0 0 13 20">
    <g fill="#000" fill-rule="evenodd">
        <path fill-rule="nonzero" d="M11.375 0h-9.75C.729 0 0 .7 0 1.563v15.312c0 .862.729 1.563 1.625 1.563h.406v.39c0 .646.547 1.172 1.219 1.172h.406c.448 0 .813-.35.813-.781v-.782H8.53v.782c0 .43.365.781.813.781h.406c.672 0 1.219-.526 1.219-1.172v-.39h.406c.896 0 1.625-.701 1.625-1.563V1.562C13 .702 12.271 0 11.375 0zM3.656 19.219H3.25a.4.4 0 0 1-.406-.39v-.392h.812v.782zm6.5-.39a.4.4 0 0 1-.406.39h-.406v-.782h.812v.391zm2.031-1.954c0 .43-.364.781-.812.781h-9.75c-.448 0-.813-.35-.813-.781V7.5h11.376v9.375zm0-10.156H.813V1.562c0-.43.364-.78.812-.78h9.75c.448 0 .813.35.813.78V6.72z"/>
        <path fill-rule="nonzero" d="M5.289 5.938H2.445c-.448 0-.813-.351-.813-.782v-.39c0-.647.547-1.172 1.219-1.172h2.031c.672 0 1.219.525 1.219 1.172v.39c0 .431-.364.782-.812.782zM2.85 4.375a.399.399 0 0 0-.406.39v.391h2.844v-.39a.399.399 0 0 0-.407-.391H2.851zM4.882 10.625H2.851c-.672 0-1.219-.526-1.219-1.172v-.39c0-.431.365-.782.813-.782h2.844c.448 0 .812.35.812.781v.391c0 .646-.547 1.172-1.219 1.172zM2.445 9.062v.391c0 .216.182.39.406.39h2.031a.399.399 0 0 0 .407-.39v-.39H2.445z"/>
        <path d="M10.969 16.875a.399.399 0 0 1-.406-.39v-3.126c0-.215.181-.39.406-.39.224 0 .406.175.406.39v3.125c0 .216-.182.391-.406.391zM10.97 12.188a.399.399 0 0 1-.407-.391c0-.216.182-.39.406-.39.225 0 .407.174.407.39 0 .216-.182.39-.406.39z"/>
    </g>
</svg>
