<svg xmlns="http://www.w3.org/2000/svg" width="22" height="19" viewBox="0 0 22 19">
    <path fill="none" fill-rule="nonzero" stroke="#000" d="M19.54 2.67C18.555 1.593 17.187 1 15.689 1c-2.108 0-3.442 1.21-4.19 2.227-.194.263-.36.528-.498.776a7.329 7.329 0 0 0-.498-.776C9.754 2.21 8.42 1 6.312 1c-1.498 0-2.866.593-3.853 1.67C1.52 3.697 1 5.073 1 6.544c0 1.601.65 3.09 2.045 4.687 1.246 1.426 3.04 2.897 5.117 4.6.774.634 1.574 1.29 2.426 2.008l.026.021a.598.598 0 0 0 .772 0l.026-.021c.852-.717 1.652-1.374 2.426-2.008 2.077-1.703 3.87-3.174 5.117-4.6C20.35 9.634 21 8.145 21 6.544c0-1.47-.518-2.847-1.46-3.874z"/>
</svg>
