<svg xmlns="http://www.w3.org/2000/svg" width="20" height="17" viewBox="0 0 20 17">
    <path fill="#FC7786" fill-rule="nonzero" d="M18.54 1.67C17.555.593 16.187 0 14.689 0c-2.108 0-3.442 1.21-4.19 2.227-.194.263-.36.528-.498.776a7.329 7.329 0 0 0-.498-.776C8.754 1.21 7.42 0 5.312 0 3.814 0 2.446.593 1.46 1.67.52 2.697 0 4.073 0 5.544c0 1.601.65 3.09 2.045 4.687 1.246 1.426 3.04 2.897 5.117 4.6.774.634 1.574 1.29 2.426 2.008l.026.021a.598.598 0 0 0 .772 0l.026-.021c.852-.717 1.652-1.374 2.426-2.008 2.077-1.703 3.87-3.174 5.117-4.6C19.35 8.634 20 7.145 20 5.544c0-1.47-.518-2.847-1.46-3.874z"/>
</svg>
