<svg xmlns="http://www.w3.org/2000/svg" width="12" height="22" viewBox="0 0 12 22">
    <g fill="#000" fill-rule="evenodd" opacity=".5">
        <path fill-rule="nonzero" d="M11.91 18.71l-.17-1.6c-.38-3.579-.739-6.96-1.02-7.91-.137-.466-.459-.695-.718-.878-.287-.204-.488-.348-.533-.788.434-.238.728-.695.728-1.218a1.38 1.38 0 0 0-.502-1.062c.485-.551.746-1.203.746-1.878 0-.923-.476-1.783-1.341-2.422C8.267.339 7.166 0 6 0 4.834 0 3.733.339 2.9.954c-.865.64-1.341 1.5-1.341 2.422 0 .675.262 1.327.746 1.878a1.38 1.38 0 0 0-.503 1.062c0 .523.294.98.728 1.218-.045.44-.246.584-.533.788-.258.183-.58.412-.718.879-.28.947-.637 4.314-1.015 7.878L.09 18.71c-.121 1.13-.164 1.91.333 2.454.65.71 2.027.837 5.577.837s4.926-.126 5.576-.837c.498-.543.455-1.324.334-2.453zM3.22 6.955a.645.645 0 0 1-.65-.639c0-.35.291-.636.65-.636H8.78c.358 0 .648.285.648.636 0 .353-.29.64-.648.64H3.22zm-.893-3.58c0-.898.638-1.692 1.607-2.164a.48.48 0 0 0 .442.29.477.477 0 0 0 .46-.61c.221-.053.452-.091.69-.113A.478.478 0 0 0 6 1.18c.24 0 .44-.175.474-.403.238.022.468.06.69.113a.476.476 0 0 0 .459.61c.199 0 .37-.12.443-.29.97.471 1.607 1.266 1.607 2.165 0 .56-.257 1.107-.726 1.558a1.45 1.45 0 0 0-.166-.01H3.22c-.056 0-.111.004-.166.01-.47-.45-.726-.998-.726-1.558zm8.679 17.283c-.457.499-1.978.587-5.006.587-3.028 0-4.55-.088-5.006-.587-.284-.311-.24-.942-.14-1.869l.173-1.631c.358-3.375.729-6.864.99-7.746.06-.208.19-.307.43-.478.313-.222.724-.516.833-1.223h5.44c.108.707.52 1 .833 1.223.24.171.369.27.43.477.262.886.65 4.547.993 7.778l.17 1.6c.1.927.144 1.558-.14 1.869z"/>
        <path d="M8.361 8.928H3.595a.38.38 0 0 0-.384.378.38.38 0 0 0 .384.378h.428l-.155 2.263a.38.38 0 0 0 .384.403c.2 0 .369-.153.382-.352l.16-2.314h2.412l.437 6.35a.381.381 0 0 0 .41.352.38.38 0 0 0 .357-.403l-.435-6.3h.386a.38.38 0 0 0 .384-.377.38.38 0 0 0-.384-.378zM4.18 13.012a.382.382 0 0 0-.41.351l-.483 7.026a.38.38 0 0 0 .383.404c.2 0 .37-.153.383-.353l.484-7.026a.38.38 0 0 0-.357-.402zM8.507 17.4a.382.382 0 0 0-.409-.352.38.38 0 0 0-.357.403l.205 2.989a.381.381 0 0 0 .409.352.38.38 0 0 0 .358-.402l-.206-2.99zM4.376 2.778c.265 0 .48-.212.48-.472a.477.477 0 0 0-.48-.473.477.477 0 0 0-.48.473c0 .26.216.472.48.472zM7.622 2.778c.265 0 .48-.212.48-.472a.477.477 0 0 0-.48-.473.477.477 0 0 0-.48.473c0 .26.216.472.48.472zM6 2.458c.265 0 .48-.211.48-.472A.477.477 0 0 0 6 1.514a.477.477 0 0 0-.48.472c0 .26.215.472.48.472z"/>
    </g>
</svg>
