<svg xmlns="http://www.w3.org/2000/svg" width="16" height="16" viewBox="0 0 16 16">
    <g fill="none" fill-rule="evenodd">
        <path fill="#FFAC81" d="M7.08 14.962l-.001.001a.909.909 0 0 1-1.272-.253 1.357 1.357 0 0 0-1.411-.584l-.006.001a.906.906 0 0 1-1.075-.718 1.352 1.352 0 0 0-1.08-1.078l-.005-.001a.904.904 0 0 1-.718-1.074 1.349 1.349 0 0 0-.584-1.408l-.003-.002a.903.903 0 0 1-.252-1.267 1.348 1.348 0 0 0 0-1.525.903.903 0 0 1 .252-1.267l.003-.002c.467-.303.699-.863.584-1.407a.904.904 0 0 1 .718-1.074l.006-.001c.547-.103.976-.531 1.079-1.078a.906.906 0 0 1 1.075-.719l.006.001A1.357 1.357 0 0 0 5.807.923.909.909 0 0 1 7.08.67v.001a1.36 1.36 0 0 0 1.531 0h.001a.909.909 0 0 1 1.271.252c.306.467.866.698 1.412.584h.005a.906.906 0 0 1 1.076.718c.103.547.531.975 1.079 1.078h.006a.904.904 0 0 1 .717 1.075 1.349 1.349 0 0 0 .584 1.407l.003.002a.903.903 0 0 1 .252 1.267 1.348 1.348 0 0 0 0 1.525.903.903 0 0 1-.252 1.267l-.003.002a1.349 1.349 0 0 0-.584 1.408.904.904 0 0 1-.717 1.074h-.006c-.548.103-.976.531-1.08 1.079a.906.906 0 0 1-1.075.718h-.005a1.357 1.357 0 0 0-1.412.583.909.909 0 0 1-1.27.253H8.61a1.36 1.36 0 0 0-1.53 0z"/>
        <path stroke="#FFF" stroke-linecap="round" stroke-linejoin="round" stroke-width="1.118" d="M4.483 6.915l2.773 3.135 3.95-4.467"/>
    </g>
</svg>
