<svg xmlns="http://www.w3.org/2000/svg" width="22" height="21" viewBox="0 0 22 21">
    <path fill="none" fill-rule="evenodd" stroke="#FFF" stroke-width="1.269" d="M20.052 9.335c.399-.388.54-.957.367-1.485a1.443 1.443 0 0 0-1.173-.985l-4.822-.699a.29.29 0 0 1-.219-.158L12.05 1.654a1.445 1.445 0 0 0-1.303-.808c-.557 0-1.057.31-1.303.808L7.286 6.008a.29.29 0 0 1-.219.158l-4.822.699c-.551.08-1 .457-1.173.985a1.436 1.436 0 0 0 .368 1.485l3.49 3.39a.29.29 0 0 1 .083.256l-.824 4.786c-.094.547.127 1.09.578 1.416.451.327 1.038.369 1.53.11l4.314-2.259a.291.291 0 0 1 .27 0l4.313 2.26a1.45 1.45 0 0 0 1.53-.11c.451-.327.673-.87.578-1.417l-.823-4.786a.29.29 0 0 1 .083-.257l3.49-3.389z"/>
</svg>
