<svg xmlns="http://www.w3.org/2000/svg" width="15" height="15" viewBox="0 0 15 15">
    <path fill="#FFB000" fill-rule="evenodd" d="M6.724 13.658l-2.016 1.06a1.557 1.557 0 0 1-2.259-1.641l.385-2.246a1.667 1.667 0 0 0-.479-1.475L.724 7.766a1.557 1.557 0 0 1 .862-2.655l2.255-.328a1.667 1.667 0 0 0 1.255-.912L6.104 1.83a1.557 1.557 0 0 1 2.792 0L9.904 3.87c.243.492.712.833 1.255.912l2.255.328a1.557 1.557 0 0 1 .862 2.655l-1.631 1.59a1.667 1.667 0 0 0-.48 1.475l.386 2.246a1.557 1.557 0 0 1-2.259 1.64l-2.016-1.06a1.667 1.667 0 0 0-1.552 0z"/>
</svg>
