<svg xmlns="http://www.w3.org/2000/svg" width="16" height="20" viewBox="0 0 16 20">
    <g fill="#000" fill-rule="nonzero">
        <path d="M14.505 3.477C13.005 1.267 10.627 0 7.982 0 5.337 0 2.959 1.268 1.459 3.477-.034 5.676-.38 8.46.535 10.92a6.383 6.383 0 0 0 1.152 1.935l5.772 6.9a.682.682 0 0 0 1.046 0l5.77-6.898a6.39 6.39 0 0 0 1.152-1.933c.916-2.464.57-5.247-.922-7.446zm-.365 6.956a5.005 5.005 0 0 1-.91 1.515l-5.248 6.274-5.252-6.278a5.009 5.009 0 0 1-.908-1.515c-.756-2.034-.469-4.336.767-6.156 1.24-1.827 3.206-2.874 5.393-2.874s4.152 1.047 5.392 2.874a6.782 6.782 0 0 1 .766 6.16z"/>
        <path d="M7.982 4.15c-2.122 0-3.848 1.756-3.848 3.915 0 2.16 1.726 3.916 3.848 3.916s3.848-1.756 3.848-3.916c0-2.159-1.726-3.916-3.848-3.916zm0 6.433c-1.364 0-2.474-1.13-2.474-2.518s1.11-2.517 2.474-2.517 2.474 1.13 2.474 2.517c0 1.388-1.11 2.518-2.474 2.518z"/>
    </g>
</svg>
