<svg xmlns="http://www.w3.org/2000/svg" width="20" height="20" viewBox="0 0 20 20">
    <g fill="#000" fill-rule="evenodd">
        <circle cx="13.333" cy="2.5" r="1"/>
        <path fill-rule="nonzero" d="M18.333 5h-2.682a.415.415 0 0 1-.405-.518l.405-1.62a2.312 2.312 0 0 0-.174-1.59A2.291 2.291 0 0 0 13.417 0h-.17c-.876 0-1.666.487-2.059 1.273a2.31 2.31 0 0 0-.174 1.588l.405 1.62a.414.414 0 0 1-.404.519H8.332c-.919 0-1.667.747-1.667 1.667v5.78l-1.022.518c-.1.051-.175.14-.21.247-.01.034-.008.07-.01.105l-4.029 2.056c-1.148.6-1.69 1.961-1.232 3.098a2.424 2.424 0 0 0 3.377 1.253c.477-.249.848-.64 1.073-1.133.063-.14.092-.248.123-.39.001-.001.018-.017.078-.048l1.852-.98v1.16c0 .92.748 1.667 1.667 1.667h10.001c.919 0 1.667-.747 1.667-1.667V6.667C20 5.747 19.252 5 18.333 5zM4.426 17.415c-.361.19-.44.395-.501.624-.015.055-.03.121-.07.206a1.553 1.553 0 0 1-.7.74c-.399.209-.87.237-1.29.082a1.584 1.584 0 0 1-.927-.906c-.3-.745.071-1.645.841-2.048l3.982-2.032.821 1.528c.097.18.222.336.362.473l-2.518 1.333zm1.976-3.9l9.808-4.979c.142 1.033.12 3.407-2.656 4.816l-4.627 2.349c-.584.296-1.307.079-1.61-.487l-.915-1.7zm12.765 4.818c0 .46-.374.834-.834.834h-10a.834.834 0 0 1-.833-.834v-1.602l.293-.155c.19.055.385.09.584.09.314 0 .631-.072.928-.222l4.627-2.349c4.176-2.12 2.99-6.257 2.976-6.298a.415.415 0 0 0-.587-.252L7.5 12.023V6.667c0-.46.374-.834.833-.834h2.683c.387 0 .746-.175.985-.48s.322-.696.228-1.073l-.405-1.62A1.471 1.471 0 0 1 13.249.832h.169c.56 0 1.064.312 1.314.812.156.314.196.674.11 1.014l-.404 1.622c-.094.376-.011.767.227 1.072.24.305.599.48.986.48h2.682c.46 0 .834.374.834.834v11.666z"/>
        <circle cx="2.5" cy="17.5" r="1"/>
        <path d="M13.75 12.175c.09 0 .18-.029.257-.089.42-.33.755-.716.995-1.148a.416.416 0 1 0-.73-.403 2.968 2.968 0 0 1-.78.895.417.417 0 0 0 .258.745z"/>
    </g>
</svg>
