<svg xmlns="http://www.w3.org/2000/svg" width="15" height="15" viewBox="0 0 15 15">
    <path fill="#000" fill-rule="nonzero" stroke="#000" stroke-width=".3" d="M12.864 1.605a2.008 2.008 0 0 0-2.85 0L2.026 9.633a.45.45 0 0 0-.115.198l-1.05 3.812a.451.451 0 0 0 .114.438c.115.115.281.159.437.116l3.792-1.056a.447.447 0 0 0 .197-.116l7.988-8.028a2.034 2.034 0 0 0 0-2.864l-.525-.528zm-9.862 8.32l6.538-6.57 2.108 2.119-6.538 6.57-2.108-2.118zm-.421.85l1.684 1.693-2.33.649.646-2.342zM12.756 4.36l-.475.478-2.108-2.12.475-.477a1.115 1.115 0 0 1 1.583 0l.525.528a1.13 1.13 0 0 1 0 1.591z"/>
</svg>
