<svg xmlns="http://www.w3.org/2000/svg" width="15" height="22" viewBox="0 0 15 22">
    <path fill="#FFF" fill-rule="evenodd" d="M11.29 4.432a.633.633 0 0 1-.485 1.044.633.633 0 0 1-.485-.225L7.84 2.328V13.75a.635.635 0 0 1-1.272 0V2.336L4.087 5.259a.636.636 0 0 1-.97-.822L6.548.394C6.59.348 6.83 0 7.204 0c.38 0 .612.338.654.388l3.432 4.044zm.786 17.566H2.331A2.33 2.33 0 0 1 0 19.67V9.94a2.33 2.33 0 0 1 2.33-2.327h1.745v1.27H2.331A1.06 1.06 0 0 0 1.27 9.94v9.73a1.06 1.06 0 0 0 1.06 1.058h9.745a1.06 1.06 0 0 0 1.06-1.057V9.94a1.06 1.06 0 0 0-1.06-1.058h-1.71v-1.27h1.71a2.33 2.33 0 0 1 2.33 2.328v9.73a2.33 2.33 0 0 1-2.33 2.328z"/>
</svg>
