<svg xmlns="http://www.w3.org/2000/svg" width="19" height="19" viewBox="0 0 19 19">
    <path fill="#FFAC81" fill-rule="evenodd" d="M18.571 8.664c.39-.395.526-.976.359-1.515a1.426 1.426 0 0 0-1.144-1.006l-4.7-.713a.284.284 0 0 1-.214-.162L10.77.824A1.403 1.403 0 0 0 9.5 0c-.543 0-1.03.316-1.27.824L6.128 5.268a.285.285 0 0 1-.214.162l-4.7.713A1.426 1.426 0 0 0 .07 7.149c-.167.539-.03 1.12.359 1.515l3.401 3.46a.304.304 0 0 1 .082.261l-.803 4.885a1.5 1.5 0 0 0 .563 1.446 1.36 1.36 0 0 0 1.492.113l4.204-2.307a.273.273 0 0 1 .264 0l4.204 2.307c.21.114.435.171.66.171.293 0 .584-.096.832-.284a1.5 1.5 0 0 0 .563-1.446l-.803-4.885a.304.304 0 0 1 .082-.261l3.401-3.46z"/>
</svg>
