<svg xmlns="http://www.w3.org/2000/svg" width="19" height="19" viewBox="0 0 19 19">
    <g fill="#000" fill-rule="evenodd">
        <path d="M5.174 9.055a.431.431 0 1 0-.862 0c0 1.133 1.249 2.687 1.391 2.861a.432.432 0 0 0 .667-.547c-.462-.564-1.196-1.69-1.196-2.314zM14.23 8.624a.431.431 0 0 0-.431.431c0 .622-.734 1.75-1.196 2.314a.431.431 0 0 0 .667.547c.142-.174 1.391-1.728 1.391-2.86a.431.431 0 0 0-.431-.432zM9.487 8.624a.431.431 0 0 0-.432.431v2.588a.431.431 0 1 0 .863 0V9.055a.431.431 0 0 0-.431-.43z"/>
        <path fill-rule="nonzero" d="M14.23 1.725c-.262 0-.535.034-.818.087A5.161 5.161 0 0 0 9.487 0C7.917 0 6.51.705 5.56 1.812a4.52 4.52 0 0 0-.818-.087A4.749 4.749 0 0 0 0 6.468a4.741 4.741 0 0 0 2.597 4.227l-.008 6.517c0 .47.182.912.515 1.245.332.333.774.516 1.244.516h10.278c.97 0 1.76-.79 1.76-1.76V10.69a4.743 4.743 0 0 0 2.587-4.22 4.749 4.749 0 0 0-4.743-4.744zm1.293 15.489a.898.898 0 0 1-.897.897H4.348a.892.892 0 0 1-.634-.263.891.891 0 0 1-.263-.635l.003-1.69h12.07v1.69zm.267-7.196a.423.423 0 0 0-.262.336.417.417 0 0 0-.005.072v4.235H3.455l.005-4.23a.444.444 0 0 0-.072-.248.427.427 0 0 0-.196-.16 3.88 3.88 0 0 1-2.33-3.555c0-2.14 1.741-3.88 3.881-3.88.084 0 .172.01.259.016a5.137 5.137 0 0 0-.69 2.57.431.431 0 1 0 .862 0A4.317 4.317 0 0 1 9.487.862a4.317 4.317 0 0 1 4.312 4.312.431.431 0 1 0 .862 0c0-.935-.254-1.812-.69-2.57.087-.007.175-.017.259-.017 2.14 0 3.88 1.741 3.88 3.881 0 1.536-.91 2.928-2.32 3.55z"/>
    </g>
</svg>
