<svg xmlns="http://www.w3.org/2000/svg" width="26" height="22" viewBox="0 0 26 22">
    <g fill="#000" fill-rule="nonzero">
        <path d="M25.999 14.79a.394.394 0 0 0-.02-.112L22.342 1.265A1.729 1.729 0 0 0 20.665.007H5.334c-.786 0-1.475.517-1.675 1.258L.014 14.697l-.002.012a.39.39 0 0 0-.011.089v5.504c0 .933.777 1.691 1.732 1.691h22.533c.956 0 1.734-.758 1.734-1.691v-5.497l-.001-.014zM4.496 1.482c.1-.37.445-.629.838-.629h15.332c.393 0 .737.26.838.63l3.5 12.9H.996l3.5-12.9zm20.637 18.82a.857.857 0 0 1-.867.846H1.733a.857.857 0 0 1-.866-.845v-5.074h24.266v5.074z"/>
        <path d="M13 20.302c1.195 0 2.167-.949 2.167-2.114 0-1.166-.972-2.114-2.167-2.114a2.187 2.187 0 0 0-1.558.646 2.08 2.08 0 0 0-.609 1.468c0 1.165.972 2.114 2.167 2.114zm1.3-2.114c0 .7-.583 1.268-1.3 1.268-.717 0-1.3-.569-1.3-1.268 0-.196.046-.381.127-.547l.867.846a.438.438 0 0 0 .612 0 .415.415 0 0 0 0-.598l-.866-.846c.17-.08.36-.124.56-.124.717 0 1.3.57 1.3 1.269zM3.9 19.456c.717 0 1.3-.569 1.3-1.268 0-.7-.583-1.269-1.3-1.269-.717 0-1.3.57-1.3 1.269s.583 1.268 1.3 1.268zm0-1.691c.24 0 .433.19.433.423a.429.429 0 0 1-.433.423.429.429 0 0 1-.433-.423c0-.234.194-.423.433-.423zM6.782 11.204a.434.434 0 0 0 .199.11c1.605.856 3.713 1.377 6.019 1.377 2.305 0 4.413-.52 6.018-1.378a.437.437 0 0 0 .202-.11c1.771-1.004 2.88-2.43 2.88-4.008 0-3.031-4.083-5.497-9.1-5.497-5.018 0-9.1 2.466-9.1 5.497 0 1.58 1.11 3.005 2.882 4.009zm1.127-.357l.783-.546C9.896 10.742 11.379 11 13 11s3.104-.258 4.308-.7l.783.547c-1.402.625-3.17.999-5.091.999-1.92 0-3.689-.374-5.09-.999zm7.687-2.616c-.704.14-1.573.232-2.596.232a13.524 13.524 0 0 1-2.618-.236c-1.404-.28-2.149-.746-2.149-1.032 0-.43 1.683-1.269 4.767-1.269 3.084 0 4.767.838 4.767 1.269 0 .286-.746.752-2.152 1.033l-.019.003zm3.037-1.036c0-1.317-2.549-2.038-5.2-2.109v-.844c3.331.105 6.067 1.415 6.067 2.953 0 .834-.806 1.602-2.076 2.146l-.734-.513c1.155-.354 1.943-.902 1.943-1.633zm-6.066-2.109c-2.651.071-5.2.792-5.2 2.109 0 .731.788 1.28 1.943 1.634l-.733.512C7.307 8.797 6.5 8.029 6.5 7.194c0-1.537 2.736-2.847 6.067-2.952v.844zm-2.145 4.006A14.89 14.89 0 0 0 13 9.31c.886 0 1.776-.073 2.579-.217l.857.6c-1.004.291-2.185.462-3.436.462-1.25 0-2.432-.17-3.436-.463l.858-.599zm10.811-1.897c0 1.244-.87 2.376-2.284 3.211l-.723-.505c1.329-.685 2.14-1.638 2.14-2.706 0-2.06-3.011-3.687-6.933-3.8V2.55c4.34.128 7.8 2.162 7.8 4.645zM12.567 2.55v.846c-3.922.112-6.934 1.74-6.934 3.799 0 1.068.812 2.021 2.142 2.706l-.724.506C5.637 9.57 4.767 8.439 4.767 7.195c0-2.483 3.46-4.517 7.8-4.645zM21.36 11.124l-1.733 1.691a.415.415 0 0 0-.094.46c.066.159.225.262.4.262H23.4a.433.433 0 0 0 .4-.261.415.415 0 0 0-.094-.461l-1.733-1.691a.44.44 0 0 0-.613 0zm-.38 1.567l.687-.67.687.67h-1.375z"/>
    </g>
</svg>
