<svg xmlns="http://www.w3.org/2000/svg" width="35" height="23" viewBox="0 0 35 23">
    <g fill="#000" fill-rule="evenodd">
        <ellipse cx="12.856" cy="3.848" rx="1" ry="1"/>
        <path fill-rule="nonzero" d="M19.33 8.73a1.452 1.452 0 0 0-.954-1.14l-1.694-.61a1.476 1.476 0 0 0-1.471.265 1.44 1.44 0 0 0-.488 1.4l.34 1.682c.103.506.457.913.946 1.09a1.48 1.48 0 0 0 1.432-.233l1.354-1.073a1.44 1.44 0 0 0 .535-1.382zm-1.176.59L16.8 10.39a.453.453 0 0 1-.44.072.446.446 0 0 1-.291-.335l-.34-1.682a.44.44 0 0 1 .15-.43.46.46 0 0 1 .293-.111c.049 0 .102.008.16.029l1.693.61c.226.081.28.272.293.35a.44.44 0 0 1-.164.425z"/>
        <ellipse cx="11.763" cy="5.344" rx="1" ry="1"/>
        <path fill-rule="nonzero" d="M28.794 3.222l-.384-1.898a1.582 1.582 0 0 0-1.025-1.18 1.607 1.607 0 0 0-1.552.252l-1.527 1.21a1.561 1.561 0 0 0-.58 1.498 1.574 1.574 0 0 0 1.034 1.234l1.911.689a1.598 1.598 0 0 0 1.595-.288 1.56 1.56 0 0 0 .528-1.517zm-1.196.747a.573.573 0 0 1-.576.104l-1.91-.688a.564.564 0 0 1-.375-.446.56.56 0 0 1 .21-.54l1.527-1.21a.573.573 0 0 1 .56-.092c.195.07.33.226.37.427l.385 1.898a.56.56 0 0 1-.191.547z"/>
        <path d="M20.693 1.815a.516.516 0 0 0-.712-.135c-.797.536-1.236 1.578-1.236 2.937 0 .28.23.507.513.507a.51.51 0 0 0 .513-.507c0-.472.076-1.62.785-2.097a.504.504 0 0 0 .137-.705zM32.317 4.594c-.327-.382-1.116-1.757-.773-2.814a.506.506 0 0 0-.331-.638.514.514 0 0 0-.645.328c-.51 1.568.554 3.297.966 3.78a.514.514 0 0 0 .723.059.504.504 0 0 0 .06-.715z"/>
        <path fill-rule="nonzero" d="M34.995 10.942l-.14-2.949a1.01 1.01 0 0 0-.459-.802 1.032 1.032 0 0 0-.925-.11l-1.417.51a.506.506 0 0 0-.306.651c.096.263.39.4.657.303l1.42-.51c.001 0 .005.002.006.006l.14 2.949A2.959 2.959 0 0 1 32 13.922l-14.325 5.16a3.008 3.008 0 0 1-3.416-.992l-.9-1.17-.003-.003-.91-1.182 11.7-4.214 5.99-2.158a.506.506 0 0 0 .306-.65.514.514 0 0 0-.657-.303l-2.408.867c.036-.184.055-.373.055-.565 0-1.596-1.312-2.895-2.926-2.895-1.613 0-2.926 1.299-2.926 2.895 0 .908.416 1.726 1.09 2.26l-11.23 4.045-4.494 1.619-5.452 1.963a2.245 2.245 0 0 0-1.28 1.16 2.238 2.238 0 0 0 1.097 2.982 2.28 2.28 0 0 0 1.735.076l.339-.122a.506.506 0 0 0 .306-.65.514.514 0 0 0-.657-.304l-.339.122a1.246 1.246 0 0 1-1.592-.734 1.23 1.23 0 0 1 .743-1.576l4.969-1.79.543 1.478a.886.886 0 0 1-.536 1.136l-1.522.548a.506.506 0 0 0-.307.65c.097.264.391.4.657.304l1.524-.549a1.9 1.9 0 0 0 1.258-1.936l4.339-1.563.673.874a4.024 4.024 0 0 0 3.195 1.573c.463 0 .932-.079 1.387-.243l14.324-5.16a3.97 3.97 0 0 0 2.646-3.933zm-12.39-2.23c0-1.037.852-1.88 1.9-1.88s1.9.843 1.9 1.88c0 .369-.105.72-.306 1.025l-2.148.773a1.896 1.896 0 0 1-1.346-1.798zm-14.46 9.705l-.368-1.001 3.659-1.318.683.887-3.974 1.432z"/>
        <ellipse cx="11.026" cy="3.508" rx="1" ry="1"/>
        <path d="M27.444 12.226l-.2-.542a.514.514 0 0 0-.656-.303.506.506 0 0 0-.307.65l.2.542a.513.513 0 0 0 .963-.347z"/>
        <ellipse cx="23.591" cy="8.146" rx="1" ry="1"/>
        <path d="M20.85 14.6l-.2-.541a.514.514 0 0 0-.656-.303.506.506 0 0 0-.307.65l.2.542a.513.513 0 0 0 .963-.347zM24.727 12.824a.514.514 0 0 0-.662.291.71.71 0 0 1-.422.41.721.721 0 0 1-.59-.045.516.516 0 0 0-.697.198.505.505 0 0 0 .2.69 1.755 1.755 0 0 0 1.437.111 1.73 1.73 0 0 0 1.029-1 .506.506 0 0 0-.295-.655z"/>
        <path fill-rule="nonzero" d="M11.86 1.143c-1.704 0-3.09 1.37-3.09 3.056s1.386 3.057 3.09 3.057c1.702 0 3.088-1.371 3.088-3.057 0-1.685-1.386-3.056-3.089-3.056zm0 5.098A2.055 2.055 0 0 1 9.795 4.2c0-1.126.925-2.042 2.063-2.042 1.138 0 2.064.916 2.064 2.042a2.055 2.055 0 0 1-2.064 2.042z"/>
        <ellipse cx="24.543" cy="9.451" rx="1" ry="1"/>
        <ellipse cx="25.246" cy="7.903" rx="1" ry="1"/>
    </g>
</svg>
