<svg id="Calque_1" data-name="Calque 1" xmlns="http://www.w3.org/2000/svg" viewBox="0 0 156.6 100.3"><defs/><g id="EASY" fill="#fff"><g class="cls-1"><path class="cls-2" d="M6.65 29.2c0-.5-.1-1.3-.1-2.4s-.1-2.3-.2-3.7-.1-2.8-.2-4.3-.1-3-.2-4.3-.1-2.7-.1-3.7-.1-1.9-.1-2.4V3.9a1.14 1.14 0 0 1 .3-.8l.6-.6h3.9a1 1 0 0 0 .4-.1c.3 0 .5-.1.8-.1a2 2 0 0 0 .8-.1 2 2 0 0 0 .5-.1 7.07 7.07 0 0 0 1.2.2 12.12 12.12 0 0 0 2 .1 12.75 12.75 0 0 0 2-.1 2.87 2.87 0 0 0 1.2-.2h5.8a6.82 6.82 0 0 1 1.2.1c.6 0 1.2.1 1.9.1s1.3.1 1.9.2a6.82 6.82 0 0 0 1.2.1.37.37 0 0 1 .3.1.31.31 0 0 0 .2.1 5.94 5.94 0 0 1 .4.8l.3.6v6.5a1 1 0 0 1-.6.7 1.63 1.63 0 0 1-.9.4l-13.1.5a.6.6 0 0 0-.4.1.77.77 0 0 1-.3.1 1.21 1.21 0 0 0-.1.5 2 2 0 0 0-.1.7.6.6 0 0 1-.1.4c0 .2-.1.4-.1.6a1.27 1.27 0 0 1-.1.6v3l1 .4h9.3l4.1.8c.3.1.5.4.7.9a8 8 0 0 1 .4 1.8 13.66 13.66 0 0 1 .2 1.9c0 .6.1 1 .1 1.2a2.55 2.55 0 0 1-.6 1.9 3.77 3.77 0 0 1-1.5.9 6 6 0 0 1-2 .3 14.77 14.77 0 0 0-2.1.1 15.26 15.26 0 0 0-1.8.1c-.9 0-1.8.1-2.7.1a22.62 22.62 0 0 0-2.7.1h-1.8a1.76 1.76 0 0 1-.1.6c0 .3-.1.7-.1 1a3.08 3.08 0 0 1-.1 1v5a4.59 4.59 0 0 0 .1 1 4.59 4.59 0 0 1 .1 1 2.54 2.54 0 0 0 .2.7.6.6 0 0 0 .6.3h14.6a1.76 1.76 0 0 1 .6.1.92.92 0 0 1 .6.4v5.4a4.87 4.87 0 0 1-.1 1.2c0 .4-.1.8-.1 1.2v.8c-.2.4-.5.7-.8.7s-.7.1-1.1.2-.8.1-1.5.2-1.4.1-2.2.2-1.4.1-2 .2a6.82 6.82 0 0 1-1.2.1h-1.1a24.37 24.37 0 0 1-2.7-.1 26.2 26.2 0 0 0-2.8-.1 3.08 3.08 0 0 0-1 .1 3.08 3.08 0 0 1-1 .1c-1.2 0-2.4 0-3.6-.1s-2.4-.2-3.6-.4h-.8c-.1 0-.2-.1-.4-.2a1.24 1.24 0 0 1-.3-.2 1.63 1.63 0 0 0-.6-.3.91.91 0 0 1-.3-.5l-.1-17.8zM37.25 49.5c-.1 0-.2-.1-.2-.3v-.4a1.62 1.62 0 0 1 .4-1c.3-.4.4-.7.6-1a3.93 3.93 0 0 1 .2-.6 7.6 7.6 0 0 1 .4-1.1c.1-.4.3-.7.4-1.1a3.93 3.93 0 0 0 .2-.6 1.69 1.69 0 0 1 .2-.5c.1-.2.2-.5.3-.7a4.88 4.88 0 0 1 .3-.7.76.76 0 0 0 .1-.4 1.24 1.24 0 0 0 .2-.3l.3-.6.3-.6a.76.76 0 0 0 .1-.4c0-.1.2-.6.4-1.2s.5-1.4.8-2.2.6-1.5.8-2.1.4-1.1.5-1.3.2-.5.5-.9a3.05 3.05 0 0 1 .5-.9l9.1-24.9c0-.1.1-.2.2-.4l.3-.6.3-.6a1.69 1.69 0 0 0 .2-.5l.3-.3h1.7a6.61 6.61 0 0 1 1.1.1c.6 0 1.2.1 2 .1a12.75 12.75 0 0 1 2 .1 6.82 6.82 0 0 0 1.2.1h.7a1.08 1.08 0 0 1 .7.3 3 3 0 0 1 .8.8l.6.9a4.35 4.35 0 0 1 .4.7 4.05 4.05 0 0 1 .5.9 5.58 5.58 0 0 0 .5.8c.1.2.2.4.3.4a6.57 6.57 0 0 0 .6 1.2c.3.5.5 1.1.8 1.7s.5 1.1.8 1.6a2.18 2.18 0 0 1 .4 1c0 .1.1.3.2.7a4.87 4.87 0 0 0 .4 1.1c.1.4.3.8.4 1.1s.2.6.2.7a36.82 36.82 0 0 0 2.6 5.7 49.82 49.82 0 0 1 2.7 5.7c.1.2.2.7.5 1.4s.6 1.5.9 2.4.7 1.9 1.1 3 .7 2 1.1 2.9a18.63 18.63 0 0 1 .9 2.4 7 7 0 0 0 .5 1.3 9.42 9.42 0 0 0 .4 1c.2.5.4.9.5 1.1a5.9 5.9 0 0 0 .4.8c.2.4.4.7.6 1.1a10.91 10.91 0 0 0 .6 1.1l.4.8v.2c0 .2-.1.3-.2.5a2.19 2.19 0 0 1-.5.3c-.2.1-.4.1-.6.2s-.5 0-.7 0h-4.4a4.53 4.53 0 0 0-1.6.3 4.67 4.67 0 0 1-1.7.3h-.7a2 2 0 0 1-.8-.3l-.1-.1-.2-.2c-.3-.6-.6-1.1-.8-1.5s-.4-.9-.7-1.6a3.22 3.22 0 0 1-.4-.7 6 6 0 0 1-.3-.7 7.42 7.42 0 0 1-.4-1.8 2.91 2.91 0 0 0-.8-1.7.35.35 0 0 0-.2-.1c-.1 0-.2-.1-.3-.1a9.89 9.89 0 0 1-1.5-.1c-.7 0-1.4-.1-2.2-.1a15.48 15.48 0 0 1-2.2-.1c-.7 0-1.2-.1-1.5-.1h-.5a2.49 2.49 0 0 1-.8-.1c-.3 0-.6-.1-.8-.1h-1.5c-1 0-2.1 0-3.1.1s-2 .2-3 .4a1.94 1.94 0 0 0-1.4.9 10.93 10.93 0 0 0-.8 1.5 3.93 3.93 0 0 1-.2.6 3.55 3.55 0 0 1-.4.9c-.1.3-.3.6-.4.9s-.2.4-.2.5a1.69 1.69 0 0 1-.2.5l-.3.9-.3.9a1.75 1.75 0 0 0-.1.5c-.3.7-.6 1.1-1 1.2s-.9.1-1.6.1a14.38 14.38 0 0 1-3.7-.5 14.53 14.53 0 0 0-4.1-.6zm22.8-30.9a.44.44 0 0 0-.1.3.37.37 0 0 0-.1.3.76.76 0 0 1-.1.4l-.3.6-.3.6a.76.76 0 0 0-.1.4l-.2.4a4.88 4.88 0 0 0-.3.7 4.88 4.88 0 0 1-.3.7l-.2.4c-.2.4-.4 1-.7 1.8s-.5 1.5-.8 2.2a21.16 21.16 0 0 0-.9 2.7v.5h9.2l.2-.2.3-.3v-.2a2.61 2.61 0 0 0-.3-1.1c-.2-.4-.3-.8-.4-1l-1.2-2.4c-.5-1-1-1.9-1.4-2.8s-1-2-1.7-3.4zM87.55 38.9a.31.31 0 0 1 .1-.2c.1 0 .2-.2.4-.4a2.25 2.25 0 0 1 .5-.5 7.37 7.37 0 0 0 .6-.5c.3-.2.6-.5.9-.7a7.05 7.05 0 0 0 .9-.7c.3-.2.5-.4.7-.5a1.73 1.73 0 0 0 .4-.3c.2-.1.4-.3.6-.4a4.35 4.35 0 0 1 .7-.4c.2-.1.4-.3.5-.3a.35.35 0 0 1 .2-.1c.1 0 .2-.1.3-.1h.2q1.65 1.5 3 3a20.57 20.57 0 0 0 3 2.9 6 6 0 0 0 1.5.9 4.31 4.31 0 0 0 1.7.3 4.87 4.87 0 0 0 1.2-.1 1.46 1.46 0 0 0 .9-.6v-1.1a8.11 8.11 0 0 0-1.1-4.1 12.67 12.67 0 0 0-2.7-3.4 7.51 7.51 0 0 0-.8-.7c-.4-.4-.8-.8-1.4-1.3s-1.1-1-1.7-1.5-1.15-1.1-1.7-1.5-1-.9-1.4-1.2-.6-.6-.8-.7c-.8-.7-1.5-1.6-2.3-2.4a17.26 17.26 0 0 1-1.9-2.8 13 13 0 0 1-1.3-3 12 12 0 0 1-.5-3.3 8 8 0 0 1 .8-3.6c.6-1 1.2-2.1 2-3.2.1 0 .2-.1.4-.3l.4-.4a19.66 19.66 0 0 1 4.4-2.9 11.3 11.3 0 0 1 5.2-1.1 16.43 16.43 0 0 1 4 .4 12 12 0 0 1 3.3 1.3 19.41 19.41 0 0 1 2.9 2.1 26.43 26.43 0 0 1 2.9 2.9 7.29 7.29 0 0 1 .9 1.1 2.27 2.27 0 0 1 .3 1.3v.5l-.4.4a3.39 3.39 0 0 1-.6.6 5.06 5.06 0 0 0-.9.8c-.4.4-.9.7-1.3 1.1a13.44 13.44 0 0 1-1.4 1.1c-.4.4-.7.6-.9.8h-1.1q-.15 0-.3-.3l-.2-.4a2.51 2.51 0 0 0-.4-.7c-.1-.2-.3-.5-.4-.7s-.2-.3-.2-.4-.2-.2-.4-.4l-.6-.6a4.35 4.35 0 0 1-.6-.7 2.25 2.25 0 0 0-.5-.5 3.39 3.39 0 0 0-1.5-.6 9.15 9.15 0 0 0-1.6-.1 7.12 7.12 0 0 0-1.6.1 1.93 1.93 0 0 0-.9.5 3.13 3.13 0 0 0-.5 1q-.15.6-.3 1.5v.1a2.5 2.5 0 0 0 .5 1.1 9.82 9.82 0 0 1 .7 1l3.9 3.9a1.73 1.73 0 0 1 .4.3 4.23 4.23 0 0 0 .7.5 2.65 2.65 0 0 0 .6.5c.2.1.3.3.4.3a24.67 24.67 0 0 1 3.7 3.5c1.1 1.3 2.2 2.6 3.2 4a19.05 19.05 0 0 0 1.3 2.5 21.16 21.16 0 0 1 1.1 2.1 15.55 15.55 0 0 1 .8 2.3 13.22 13.22 0 0 1 .3 3V41a9 9 0 0 1-.8 2.1 5.86 5.86 0 0 1-1.4 1.8c-.1.1-.4.3-.7.6a10.63 10.63 0 0 1-1.1.9c-.4.3-.8.6-1.1.8s-.6.4-.7.6a5 5 0 0 0-.7.5 7.76 7.76 0 0 1-.7.4c-.2.1-.6.3-1.1.6a2.52 2.52 0 0 1-.9.4 3.22 3.22 0 0 0-.8.1c-.4.1-.9.2-1.4.3l-1.5.3a8.92 8.92 0 0 1-1.1.2h-.4a15 15 0 0 1-2-.2 14.62 14.62 0 0 1-2-.5 12 12 0 0 1-4.2-2.2c-1.2-1-2.3-2.1-3.5-3.3-.2-.1-.3-.3-.6-.6a4.62 4.62 0 0 0-.7-.7c-.3-.2-.4-.5-.6-.7s-.3-.3-.3-.4a1.54 1.54 0 0 1-.3-.7c-.1-.4-.2-.6-.2-.7a1.55 1.55 0 0 0-.3-.6 5.92 5.92 0 0 0-.4-.6.35.35 0 0 1-.1-.2v-.3z" transform="translate(-1.85 -1.7)"/></g><g class="cls-1"><path class="cls-2" d="M134.25 27.3a6.53 6.53 0 0 1-.9-1.3c-.4-.6-.8-1.3-1.2-2s-.8-1.3-1.2-2-.6-1-.8-1.3c-.1-.1-.2-.4-.4-.7a7.46 7.46 0 0 0-.7-1.2 7.46 7.46 0 0 1-.7-1.2 7.76 7.76 0 0 1-.4-.7.91.91 0 0 0-.3-.5l-.6-.9-.6-.9a5.2 5.2 0 0 1-.3-.5.91.91 0 0 0-.3-.5c-.1-.3-.3-.6-.4-.9s-.3-.6-.4-.9-.2-.5-.3-.5c-.6-1.2-1.3-2.2-1.9-3.2a12.48 12.48 0 0 1-1.6-3.5v-.2a.6.6 0 0 1 .3-.6c.2-.1.4-.3.6-.3l3.9-.3c1.3-.1 2.6-.2 3.9-.2h1.1l.1.1.1.1c.1.2.3.4.5.7l.6.9a5.55 5.55 0 0 0 .6.8 1.73 1.73 0 0 1 .3.4c.1.2.3.6.6 1.3s.7 1.5 1.1 2.3.8 1.6 1.1 2.3a5.29 5.29 0 0 1 .6 1.3 6.13 6.13 0 0 1 .5.8 6.13 6.13 0 0 0 .5.8 4.18 4.18 0 0 0 .3.9 4.13 4.13 0 0 0 .4.9c0 .1.1.2.2.5a1.69 1.69 0 0 1 .2.5c.1 0 .1.1.2.1l.1.1.1.1.1-.1.1-.1c.5-1 1.1-2 1.6-3s1.1-1.9 1.7-2.9a7.57 7.57 0 0 0 .9-1.8 14.17 14.17 0 0 1 .8-1.8c.4-.7.8-1.5 1.3-2.3a19.08 19.08 0 0 1 1.5-2.1c.1 0 .2-.1.4-.3s.3-.3.3-.4h3.3a2.64 2.64 0 0 1 .7.1c.4.1.7.1.7.2h.6a5.28 5.28 0 0 1 1.2.1 5.28 5.28 0 0 0 1.2.1h.6l1.5.3a1 1 0 0 1 .8 1.1v.5c0 .1-.2.4-.4.9a8.92 8.92 0 0 1-.5 1l-11.3 18.2-1.4 2.9V30c0 2.6 0 5.2.1 7.8s.1 5.2.1 7.8v3a1.52 1.52 0 0 1-1.2.7c-1.3.1-2.5.2-3.6.2h-5.9l-.2-.2v-22z" transform="translate(-1.85 -1.7)"/></g><g class="cls-1"><path class="cls-2" d="M6.65 29.2c0-.5-.1-1.3-.1-2.4s-.1-2.3-.2-3.7-.1-2.8-.2-4.3-.1-3-.2-4.3-.1-2.7-.1-3.7-.1-1.9-.1-2.4V3.9a1.14 1.14 0 0 1 .3-.8l.6-.6h3.9a1 1 0 0 0 .4-.1c.3 0 .5-.1.8-.1a2 2 0 0 0 .8-.1 2 2 0 0 0 .5-.1 7.07 7.07 0 0 0 1.2.2 12.12 12.12 0 0 0 2 .1 12.75 12.75 0 0 0 2-.1 2.87 2.87 0 0 0 1.2-.2h5.8a6.82 6.82 0 0 1 1.2.1c.6 0 1.2.1 1.9.1s1.3.1 1.9.2a6.82 6.82 0 0 0 1.2.1.37.37 0 0 1 .3.1.31.31 0 0 0 .2.1 5.94 5.94 0 0 1 .4.8l.3.6v6.5a1 1 0 0 1-.6.7 1.63 1.63 0 0 1-.9.4l-13.1.5a.6.6 0 0 0-.4.1.77.77 0 0 1-.3.1 1.21 1.21 0 0 0-.1.5 2 2 0 0 0-.1.7.6.6 0 0 1-.1.4c0 .2-.1.4-.1.6a1.27 1.27 0 0 1-.1.6v3l1 .4h9.3l4.1.8c.3.1.5.4.7.9a8 8 0 0 1 .4 1.8 13.66 13.66 0 0 1 .2 1.9c0 .6.1 1 .1 1.2a2.55 2.55 0 0 1-.6 1.9 3.77 3.77 0 0 1-1.5.9 6 6 0 0 1-2 .3 14.77 14.77 0 0 0-2.1.1 15.26 15.26 0 0 0-1.8.1c-.9 0-1.8.1-2.7.1a22.62 22.62 0 0 0-2.7.1h-1.8a1.76 1.76 0 0 1-.1.6c0 .3-.1.7-.1 1a3.08 3.08 0 0 1-.1 1v5a4.59 4.59 0 0 0 .1 1 4.59 4.59 0 0 1 .1 1 2.54 2.54 0 0 0 .2.7.6.6 0 0 0 .6.3h14.6a1.76 1.76 0 0 1 .6.1.92.92 0 0 1 .6.4v5.4a4.87 4.87 0 0 1-.1 1.2c0 .4-.1.8-.1 1.2v.8c-.2.4-.5.7-.8.7s-.7.1-1.1.2-.8.1-1.5.2-1.4.1-2.2.2-1.4.1-2 .2a6.82 6.82 0 0 1-1.2.1h-1.1a24.37 24.37 0 0 1-2.7-.1 26.2 26.2 0 0 0-2.8-.1 3.08 3.08 0 0 0-1 .1 3.08 3.08 0 0 1-1 .1c-1.2 0-2.4 0-3.6-.1s-2.4-.2-3.6-.4h-.8c-.1 0-.2-.1-.4-.2a1.24 1.24 0 0 1-.3-.2 1.63 1.63 0 0 0-.6-.3.91.91 0 0 1-.3-.5l-.1-17.8zM37.25 49.5c-.1 0-.2-.1-.2-.3v-.4a1.62 1.62 0 0 1 .4-1c.3-.4.4-.7.6-1a3.93 3.93 0 0 1 .2-.6 7.6 7.6 0 0 1 .4-1.1c.1-.4.3-.7.4-1.1a3.93 3.93 0 0 0 .2-.6 1.69 1.69 0 0 1 .2-.5c.1-.2.2-.5.3-.7a4.88 4.88 0 0 1 .3-.7.76.76 0 0 0 .1-.4 1.24 1.24 0 0 0 .2-.3l.3-.6.3-.6a.76.76 0 0 0 .1-.4c0-.1.2-.6.4-1.2s.5-1.4.8-2.2.6-1.5.8-2.1.4-1.1.5-1.3.2-.5.5-.9a3.05 3.05 0 0 1 .5-.9l9.1-24.9c0-.1.1-.2.2-.4l.3-.6.3-.6a1.69 1.69 0 0 0 .2-.5l.3-.3h1.7a6.61 6.61 0 0 1 1.1.1c.6 0 1.2.1 2 .1a12.75 12.75 0 0 1 2 .1 6.82 6.82 0 0 0 1.2.1h.7a1.08 1.08 0 0 1 .7.3 3 3 0 0 1 .8.8l.6.9a4.35 4.35 0 0 1 .4.7 4.05 4.05 0 0 1 .5.9 5.58 5.58 0 0 0 .5.8c.1.2.2.4.3.4a6.57 6.57 0 0 0 .6 1.2c.3.5.5 1.1.8 1.7s.5 1.1.8 1.6a2.18 2.18 0 0 1 .4 1c0 .1.1.3.2.7a4.87 4.87 0 0 0 .4 1.1c.1.4.3.8.4 1.1s.2.6.2.7a36.82 36.82 0 0 0 2.6 5.7 49.82 49.82 0 0 1 2.7 5.7c.1.2.2.7.5 1.4s.6 1.5.9 2.4.7 1.9 1.1 3 .7 2 1.1 2.9a18.63 18.63 0 0 1 .9 2.4 7 7 0 0 0 .5 1.3 9.42 9.42 0 0 0 .4 1c.2.5.4.9.5 1.1a5.9 5.9 0 0 0 .4.8c.2.4.4.7.6 1.1a10.91 10.91 0 0 0 .6 1.1l.4.8v.2c0 .2-.1.3-.2.5a2.19 2.19 0 0 1-.5.3c-.2.1-.4.1-.6.2s-.5 0-.7 0h-4.4a4.53 4.53 0 0 0-1.6.3 4.67 4.67 0 0 1-1.7.3h-.7a2 2 0 0 1-.8-.3l-.1-.1-.2-.2c-.3-.6-.6-1.1-.8-1.5s-.4-.9-.7-1.6a3.22 3.22 0 0 1-.4-.7 6 6 0 0 1-.3-.7 7.42 7.42 0 0 1-.4-1.8 2.91 2.91 0 0 0-.8-1.7.35.35 0 0 0-.2-.1c-.1 0-.2-.1-.3-.1a9.89 9.89 0 0 1-1.5-.1c-.7 0-1.4-.1-2.2-.1a15.48 15.48 0 0 1-2.2-.1c-.7 0-1.2-.1-1.5-.1h-.5a2.49 2.49 0 0 1-.8-.1c-.3 0-.6-.1-.8-.1h-1.5c-1 0-2.1 0-3.1.1s-2 .2-3 .4a1.94 1.94 0 0 0-1.4.9 10.93 10.93 0 0 0-.8 1.5 3.93 3.93 0 0 1-.2.6 3.55 3.55 0 0 1-.4.9c-.1.3-.3.6-.4.9s-.2.4-.2.5a1.69 1.69 0 0 1-.2.5l-.3.9-.3.9a1.75 1.75 0 0 0-.1.5c-.3.7-.6 1.1-1 1.2s-.9.1-1.6.1a14.38 14.38 0 0 1-3.7-.5 14.53 14.53 0 0 0-4.1-.6zm22.8-30.9a.44.44 0 0 0-.1.3.37.37 0 0 0-.1.3.76.76 0 0 1-.1.4l-.3.6-.3.6a.76.76 0 0 0-.1.4l-.2.4a4.88 4.88 0 0 0-.3.7 4.88 4.88 0 0 1-.3.7l-.2.4c-.2.4-.4 1-.7 1.8s-.5 1.5-.8 2.2a21.16 21.16 0 0 0-.9 2.7v.5h9.2l.2-.2.3-.3v-.2a2.61 2.61 0 0 0-.3-1.1c-.2-.4-.3-.8-.4-1l-1.2-2.4c-.5-1-1-1.9-1.4-2.8s-1-2-1.7-3.4zM87.55 38.9a.31.31 0 0 1 .1-.2c.1 0 .2-.2.4-.4a2.25 2.25 0 0 1 .5-.5 7.37 7.37 0 0 0 .6-.5c.3-.2.6-.5.9-.7a7.05 7.05 0 0 0 .9-.7c.3-.2.5-.4.7-.5a1.73 1.73 0 0 0 .4-.3c.2-.1.4-.3.6-.4a4.35 4.35 0 0 1 .7-.4c.2-.1.4-.3.5-.3a.35.35 0 0 1 .2-.1c.1 0 .2-.1.3-.1h.2q1.65 1.5 3 3a20.57 20.57 0 0 0 3 2.9 6 6 0 0 0 1.5.9 4.31 4.31 0 0 0 1.7.3 4.87 4.87 0 0 0 1.2-.1 1.46 1.46 0 0 0 .9-.6v-1.1a8.11 8.11 0 0 0-1.1-4.1 12.67 12.67 0 0 0-2.7-3.4 7.51 7.51 0 0 0-.8-.7c-.4-.4-.8-.8-1.4-1.3s-1.1-1-1.7-1.5-1.15-1.1-1.7-1.5-1-.9-1.4-1.2-.6-.6-.8-.7c-.8-.7-1.5-1.6-2.3-2.4a17.26 17.26 0 0 1-1.9-2.8 13 13 0 0 1-1.3-3 12 12 0 0 1-.5-3.3 8 8 0 0 1 .8-3.6c.6-1 1.2-2.1 2-3.2.1 0 .2-.1.4-.3l.4-.4a19.66 19.66 0 0 1 4.4-2.9 11.3 11.3 0 0 1 5.2-1.1 16.43 16.43 0 0 1 4 .4 12 12 0 0 1 3.3 1.3 19.41 19.41 0 0 1 2.9 2.1 26.43 26.43 0 0 1 2.9 2.9 7.29 7.29 0 0 1 .9 1.1 2.27 2.27 0 0 1 .3 1.3v.5l-.4.4a3.39 3.39 0 0 1-.6.6 5.06 5.06 0 0 0-.9.8c-.4.4-.9.7-1.3 1.1a13.44 13.44 0 0 1-1.4 1.1c-.4.4-.7.6-.9.8h-1.1q-.15 0-.3-.3l-.2-.4a2.51 2.51 0 0 0-.4-.7c-.1-.2-.3-.5-.4-.7s-.2-.3-.2-.4-.2-.2-.4-.4l-.6-.6a4.35 4.35 0 0 1-.6-.7 2.25 2.25 0 0 0-.5-.5 3.39 3.39 0 0 0-1.5-.6 9.15 9.15 0 0 0-1.6-.1 7.12 7.12 0 0 0-1.6.1 1.93 1.93 0 0 0-.9.5 3.13 3.13 0 0 0-.5 1q-.15.6-.3 1.5v.1a2.5 2.5 0 0 0 .5 1.1 9.82 9.82 0 0 1 .7 1l3.9 3.9a1.73 1.73 0 0 1 .4.3 4.23 4.23 0 0 0 .7.5 2.65 2.65 0 0 0 .6.5c.2.1.3.3.4.3a24.67 24.67 0 0 1 3.7 3.5c1.1 1.3 2.2 2.6 3.2 4a19.05 19.05 0 0 0 1.3 2.5 21.16 21.16 0 0 1 1.1 2.1 15.55 15.55 0 0 1 .8 2.3 13.22 13.22 0 0 1 .3 3V41a9 9 0 0 1-.8 2.1 5.86 5.86 0 0 1-1.4 1.8c-.1.1-.4.3-.7.6a10.63 10.63 0 0 1-1.1.9c-.4.3-.8.6-1.1.8s-.6.4-.7.6a5 5 0 0 0-.7.5 7.76 7.76 0 0 1-.7.4c-.2.1-.6.3-1.1.6a2.52 2.52 0 0 1-.9.4 3.22 3.22 0 0 0-.8.1c-.4.1-.9.2-1.4.3l-1.5.3a8.92 8.92 0 0 1-1.1.2h-.4a15 15 0 0 1-2-.2 14.62 14.62 0 0 1-2-.5 12 12 0 0 1-4.2-2.2c-1.2-1-2.3-2.1-3.5-3.3-.2-.1-.3-.3-.6-.6a4.62 4.62 0 0 0-.7-.7c-.3-.2-.4-.5-.6-.7s-.3-.3-.3-.4a1.54 1.54 0 0 1-.3-.7c-.1-.4-.2-.6-.2-.7a1.55 1.55 0 0 0-.3-.6 5.92 5.92 0 0 0-.4-.6.35.35 0 0 1-.1-.2v-.3z" transform="translate(-1.85 -1.7)"/></g><g class="cls-1"><path class="cls-2" d="M134.25 27.3a6.53 6.53 0 0 1-.9-1.3c-.4-.6-.8-1.3-1.2-2s-.8-1.3-1.2-2-.6-1-.8-1.3c-.1-.1-.2-.4-.4-.7a7.46 7.46 0 0 0-.7-1.2 7.46 7.46 0 0 1-.7-1.2 7.76 7.76 0 0 1-.4-.7.91.91 0 0 0-.3-.5l-.6-.9-.6-.9a5.2 5.2 0 0 1-.3-.5.91.91 0 0 0-.3-.5c-.1-.3-.3-.6-.4-.9s-.3-.6-.4-.9-.2-.5-.3-.5c-.6-1.2-1.3-2.2-1.9-3.2a12.48 12.48 0 0 1-1.6-3.5v-.2a.6.6 0 0 1 .3-.6c.2-.1.4-.3.6-.3l3.9-.3c1.3-.1 2.6-.2 3.9-.2h1.1l.1.1.1.1c.1.2.3.4.5.7l.6.9a5.55 5.55 0 0 0 .6.8 1.73 1.73 0 0 1 .3.4c.1.2.3.6.6 1.3s.7 1.5 1.1 2.3.8 1.6 1.1 2.3a5.29 5.29 0 0 1 .6 1.3 6.13 6.13 0 0 1 .5.8 6.13 6.13 0 0 0 .5.8 4.18 4.18 0 0 0 .3.9 4.13 4.13 0 0 0 .4.9c0 .1.1.2.2.5a1.69 1.69 0 0 1 .2.5c.1 0 .1.1.2.1l.1.1.1.1.1-.1.1-.1c.5-1 1.1-2 1.6-3s1.1-1.9 1.7-2.9a7.57 7.57 0 0 0 .9-1.8 14.17 14.17 0 0 1 .8-1.8c.4-.7.8-1.5 1.3-2.3a19.08 19.08 0 0 1 1.5-2.1c.1 0 .2-.1.4-.3s.3-.3.3-.4h3.3a2.64 2.64 0 0 1 .7.1c.4.1.7.1.7.2h.6a5.28 5.28 0 0 1 1.2.1 5.28 5.28 0 0 0 1.2.1h.6l1.5.3a1 1 0 0 1 .8 1.1v.5c0 .1-.2.4-.4.9a8.92 8.92 0 0 1-.5 1l-11.3 18.2-1.4 2.9V30c0 2.6 0 5.2.1 7.8s.1 5.2.1 7.8v3a1.52 1.52 0 0 1-1.2.7c-1.3.1-2.5.2-3.6.2h-5.9l-.2-.2v-22z" transform="translate(-1.85 -1.7)"/></g></g><g id="COOK" fill="#fff"><g class="cls-1"><path class="cls-2" d="M34.05 66a2.81 2.81 0 0 1-.7 1.9 2.32 2.32 0 0 1-1.9.9 2.6 2.6 0 0 1-1.5-.4 15.78 15.78 0 0 0-7.7-2 14.55 14.55 0 0 0-7.6 1.9 13 13 0 0 0-5.1 5.3 16.61 16.61 0 0 0-1.8 7.8 16.3 16.3 0 0 0 1.9 8.2 13 13 0 0 0 5.2 5.2 15.29 15.29 0 0 0 7.4 1.8A14.6 14.6 0 0 0 30 94.5a4 4 0 0 1 1.5-.3 2.33 2.33 0 0 1 2 1 2.74 2.74 0 0 1 .7 1.8 2 2 0 0 1-.4 1.3 2.19 2.19 0 0 1-1 .9 24.85 24.85 0 0 1-5 2 21.28 21.28 0 0 1-5.5.7 20.83 20.83 0 0 1-10.2-2.5 17.69 17.69 0 0 1-7.4-7.2 20.69 20.69 0 0 1-2.8-11 20.16 20.16 0 0 1 2.7-10.4 19 19 0 0 1 7.3-7.3 20.42 20.42 0 0 1 10.4-2.7 21 21 0 0 1 10.4 2.7 3.11 3.11 0 0 1 1.35 2.5zM73.15 91.9a19.67 19.67 0 0 1-6.9 7.4 18.73 18.73 0 0 1-10 2.7 19 19 0 0 1-10-2.7 19.67 19.67 0 0 1-6.9-7.4 21.45 21.45 0 0 1-2.5-10.5 21.72 21.72 0 0 1 2.5-10.5 19 19 0 0 1 6.9-7.4 18.73 18.73 0 0 1 10-2.7 19 19 0 0 1 10 2.7 19.67 19.67 0 0 1 6.9 7.4 21.45 21.45 0 0 1 2.5 10.5 21.45 21.45 0 0 1-2.5 10.5zm-5.1-18.2a12.59 12.59 0 0 0-4.8-5.4 12.75 12.75 0 0 0-7-2 12.91 12.91 0 0 0-7 1.9 14 14 0 0 0-4.8 5.4 19.39 19.39 0 0 0-1.6 7.8 18.2 18.2 0 0 0 1.7 7.8 12.59 12.59 0 0 0 4.8 5.4 12.75 12.75 0 0 0 7 2 13 13 0 0 0 7-2 14 14 0 0 0 4.8-5.4 17.87 17.87 0 0 0 1.7-7.8 17.47 17.47 0 0 0-1.8-7.7zM115.45 91.9a19.67 19.67 0 0 1-6.9 7.4 18.73 18.73 0 0 1-10 2.7 18.63 18.63 0 0 1-16.9-10.1 21.45 21.45 0 0 1-2.5-10.5 21.72 21.72 0 0 1 2.5-10.5 19 19 0 0 1 6.9-7.4 18.73 18.73 0 0 1 10-2.7 18.63 18.63 0 0 1 16.9 10.1A21.45 21.45 0 0 1 118 81.4a22.6 22.6 0 0 1-2.55 10.5zm-5.2-18.2a12.59 12.59 0 0 0-4.8-5.4 12.75 12.75 0 0 0-7-2 12.91 12.91 0 0 0-7 1.9 14 14 0 0 0-4.8 5.4A17.87 17.87 0 0 0 85 81.4a18.2 18.2 0 0 0 1.7 7.8 12.59 12.59 0 0 0 4.8 5.4 12.75 12.75 0 0 0 7 2 13 13 0 0 0 7-2 14 14 0 0 0 4.8-5.4 17.87 17.87 0 0 0 1.7-7.8 16.16 16.16 0 0 0-1.75-7.7zM154.85 98.7a2.88 2.88 0 0 1-.9 2.1 3.23 3.23 0 0 1-2.1.8 2.46 2.46 0 0 1-2-1l-14-18-6.4 6.1v10a2.79 2.79 0 0 1-.8 2 2.86 2.86 0 0 1-2.1.8 2.73 2.73 0 0 1-2.8-2.8V64.1a2.56 2.56 0 0 1 .8-1.9 2.86 2.86 0 0 1 2.1-.8 2.73 2.73 0 0 1 2.8 2.8V82l20.3-19.7a3.42 3.42 0 0 1 2.2-1 2.27 2.27 0 0 1 1.8.9 2.74 2.74 0 0 1 .7 1.8 2.9 2.9 0 0 1-.8 1.8l-13.6 12.8 14.1 18.3a2.27 2.27 0 0 1 .7 1.8z" transform="translate(-1.85 -1.7)"/></g><g class="cls-1"><path class="cls-2" d="M34.05 66a2.81 2.81 0 0 1-.7 1.9 2.32 2.32 0 0 1-1.9.9 2.6 2.6 0 0 1-1.5-.4 15.78 15.78 0 0 0-7.7-2 14.55 14.55 0 0 0-7.6 1.9 13 13 0 0 0-5.1 5.3 16.61 16.61 0 0 0-1.8 7.8 16.3 16.3 0 0 0 1.9 8.2 13 13 0 0 0 5.2 5.2 15.29 15.29 0 0 0 7.4 1.8A14.6 14.6 0 0 0 30 94.5a4 4 0 0 1 1.5-.3 2.33 2.33 0 0 1 2 1 2.74 2.74 0 0 1 .7 1.8 2 2 0 0 1-.4 1.3 2.19 2.19 0 0 1-1 .9 24.85 24.85 0 0 1-5 2 21.28 21.28 0 0 1-5.5.7 20.83 20.83 0 0 1-10.2-2.5 17.69 17.69 0 0 1-7.4-7.2 20.69 20.69 0 0 1-2.8-11 20.16 20.16 0 0 1 2.7-10.4 19 19 0 0 1 7.3-7.3 20.42 20.42 0 0 1 10.4-2.7 21 21 0 0 1 10.4 2.7 3.11 3.11 0 0 1 1.35 2.5zM73.15 91.9a19.67 19.67 0 0 1-6.9 7.4 18.73 18.73 0 0 1-10 2.7 19 19 0 0 1-10-2.7 19.67 19.67 0 0 1-6.9-7.4 21.45 21.45 0 0 1-2.5-10.5 21.72 21.72 0 0 1 2.5-10.5 19 19 0 0 1 6.9-7.4 18.73 18.73 0 0 1 10-2.7 19 19 0 0 1 10 2.7 19.67 19.67 0 0 1 6.9 7.4 21.45 21.45 0 0 1 2.5 10.5 21.45 21.45 0 0 1-2.5 10.5zm-5.1-18.2a12.59 12.59 0 0 0-4.8-5.4 12.75 12.75 0 0 0-7-2 12.91 12.91 0 0 0-7 1.9 14 14 0 0 0-4.8 5.4 19.39 19.39 0 0 0-1.6 7.8 18.2 18.2 0 0 0 1.7 7.8 12.59 12.59 0 0 0 4.8 5.4 12.75 12.75 0 0 0 7 2 13 13 0 0 0 7-2 14 14 0 0 0 4.8-5.4 17.87 17.87 0 0 0 1.7-7.8 17.47 17.47 0 0 0-1.8-7.7zM115.45 91.9a19.67 19.67 0 0 1-6.9 7.4 18.73 18.73 0 0 1-10 2.7 18.63 18.63 0 0 1-16.9-10.1 21.45 21.45 0 0 1-2.5-10.5 21.72 21.72 0 0 1 2.5-10.5 19 19 0 0 1 6.9-7.4 18.73 18.73 0 0 1 10-2.7 18.63 18.63 0 0 1 16.9 10.1A21.45 21.45 0 0 1 118 81.4a22.6 22.6 0 0 1-2.55 10.5zm-5.2-18.2a12.59 12.59 0 0 0-4.8-5.4 12.75 12.75 0 0 0-7-2 12.91 12.91 0 0 0-7 1.9 14 14 0 0 0-4.8 5.4A17.87 17.87 0 0 0 85 81.4a18.2 18.2 0 0 0 1.7 7.8 12.59 12.59 0 0 0 4.8 5.4 12.75 12.75 0 0 0 7 2 13 13 0 0 0 7-2 14 14 0 0 0 4.8-5.4 17.87 17.87 0 0 0 1.7-7.8 16.16 16.16 0 0 0-1.75-7.7zM154.85 98.7a2.88 2.88 0 0 1-.9 2.1 3.23 3.23 0 0 1-2.1.8 2.46 2.46 0 0 1-2-1l-14-18-6.4 6.1v10a2.79 2.79 0 0 1-.8 2 2.86 2.86 0 0 1-2.1.8 2.73 2.73 0 0 1-2.8-2.8V64.1a2.56 2.56 0 0 1 .8-1.9 2.86 2.86 0 0 1 2.1-.8 2.73 2.73 0 0 1 2.8 2.8V82l20.3-19.7a3.42 3.42 0 0 1 2.2-1 2.27 2.27 0 0 1 1.8.9 2.74 2.74 0 0 1 .7 1.8 2.9 2.9 0 0 1-.8 1.8l-13.6 12.8 14.1 18.3a2.27 2.27 0 0 1 .7 1.8z" transform="translate(-1.85 -1.7)"/></g></g><path id="Oval" stroke="#ff9b6a" fill="#ff9b6a" class="cls-3" d="M49 81a7.67 7.67 0 0 1 15 .1" transform="translate(-1.85 -1.7)"/><path id="Oval-Copy" stroke="#ff9b6a" fill="#ff9b6a" class="cls-3" d="M91 81a7.67 7.67 0 0 1 15 .1" transform="translate(-1.85 -1.7)"/></svg>