<svg id="Calque_1" data-name="Calque 1" xmlns="http://www.w3.org/2000/svg" viewBox="0 0 183.36 32">
  <defs/>
  <path class="cls-1" fill="#F95E74" d="M43.5 16.8a5.38 5.38 0 0 0-.1-1.1c0-.5-.1-1-.1-1.7s-.1-1.3-.1-1.9-.1-1.3-.1-2a9.15 9.15 0 0 0-.1-1.7V5.3a.6.6 0 0 1 .1-.4l.3-.3h2.9a3.54 3.54 0 0 0 .6.1h1.8a3.54 3.54 0 0 0 .6-.1h3.3a2.77 2.77 0 0 1 .9.1c.3 0 .6.1.8.1s.4 0 .5.1h.1c.1 0 .1 0 .1.1s.1.2.2.4a.77.77 0 0 1 .1.3v3q0 .15-.3.3c-.2.1-.3.2-.4.2l-5.9.2h-.2c-.1 0-.1 0-.1.1a.31.31 0 0 1-.1.2.37.37 0 0 1-.1.3v2l.4.2h4.2l1.8.4c.1 0 .2.2.3.4a1.88 1.88 0 0 1 .2.8 2.77 2.77 0 0 1 .1.9v.5a1.22 1.22 0 0 1-.3.9 1.61 1.61 0 0 1-.7.4 2.77 2.77 0 0 1-.9.1h-4.9v4.1c0 .2 0 .4.1.4a.37.37 0 0 0 .1.3c.1.1.1.2.3.2h6.9c.2 0 .2.1.3.2v4c-.1.2-.2.3-.4.3s-.3.1-.5.1a2 2 0 0 0-.7.1c-.3 0-.6.1-1 .1s-.6.1-.9.1h-2.2c-.4 0-.8-.1-1.3-.1a.9.9 0 0 0-.5.1h-.4a8.6 8.6 0 0 1-1.6-.1 8.75 8.75 0 0 1-1.6-.2h-.4a.31.31 0 0 1-.2-.1c-.1-.1-.1-.1-.2-.1s-.1-.1-.3-.1a.22.22 0 0 1-.2-.2v-8.9zM57.3 26a.1.1 0 0 1-.1-.1v-.2a.76.76 0 0 1 .2-.4 1.38 1.38 0 0 1 .3-.4.44.44 0 0 0 .1-.3c.1-.1.1-.3.2-.5s.1-.3.2-.5a.37.37 0 0 0 .1-.3c0-.1 0-.1.1-.2s.1-.2.1-.3a.37.37 0 0 0 .1-.3.35.35 0 0 1 .1-.2.35.35 0 0 0 .1-.2c.1-.1.1-.2.2-.3a.37.37 0 0 0 .1-.3c0-.1.1-.1.1-.2a3.93 3.93 0 0 1 .2-.6 6.89 6.89 0 0 1 .4-1c.1-.3.3-.7.4-1a3.93 3.93 0 0 0 .2-.6c0-.1.1-.2.2-.4s.2-.3.2-.4l4.1-11.2a.31.31 0 0 1 .1-.2.37.37 0 0 0 .1-.3c0-.1.1-.2.1-.3a.35.35 0 0 1 .1-.2l.1-.1h3.9a.37.37 0 0 1 .3.1c.1.1.3.2.4.4s.2.3.3.4.1.2.2.3a.76.76 0 0 1 .2.4c.1.1.1.3.2.4a.31.31 0 0 1 .1.2c.1.1.1.3.3.5a5.9 5.9 0 0 0 .4.8 4.88 4.88 0 0 0 .3.7l.2.4c0 .1.1.2.1.3s.1.3.2.5.1.4.2.5a.77.77 0 0 1 .1.3 12.27 12.27 0 0 0 1.2 2.6 12.27 12.27 0 0 1 1.2 2.6 3.93 3.93 0 0 0 .2.6c.1.3.3.7.4 1.1a6.94 6.94 0 0 0 .5 1.3c.2.5.3.9.5 1.3a7.6 7.6 0 0 1 .4 1.1 3.93 3.93 0 0 1 .2.6c0 .1.1.2.2.5a1.69 1.69 0 0 1 .2.5c0 .1.1.2.2.4s.2.3.3.5a2.19 2.19 0 0 0 .3.5c.1.2.1.3.2.3v.1c0 .1 0 .2-.1.2s-.1.1-.2.1-.2.1-.3.1H76a1.7 1.7 0 0 0-.7.1 2 2 0 0 1-.8.1h-.3a.76.76 0 0 1-.4-.1h-.1l-.3.3a1.33 1.33 0 0 1-.3-.7c0-.2-.2-.4-.3-.7a1.24 1.24 0 0 1-.2-.3c-.1-.2-.1-.3-.2-.3a3.09 3.09 0 0 1-.2-.8 1.2 1.2 0 0 0-.4-.8.1.1 0 0 1-.1-.1h-5.2a6.6 6.6 0 0 0-1.4.1 6.75 6.75 0 0 0-1.4.2.92.92 0 0 0-.6.4c-.1.2-.1 0-.2.3 0 .1-.1.1-.1.3s-.1.3-.2.4-.1.3-.2.4a.31.31 0 0 0-.1.2.31.31 0 0 1-.1.2.6.6 0 0 0-.1.4.6.6 0 0 0-.1.4.35.35 0 0 1-.1.2c-.1.3-.3.5-.5.5h-.7a8.81 8.81 0 0 1-1.7-.2c-.4 0-1-.1-1.7-.1zm10.3-13.9a.1.1 0 0 1-.1.1v.1a.31.31 0 0 1-.1.2c0 .1-.1.2-.1.3s-.1.2-.1.3-.1.1-.1.2a.31.31 0 0 1-.1.2c0 .1-.1.2-.1.3s-.1.2-.1.3a.35.35 0 0 1-.1.2 6.89 6.89 0 0 0-.3.8 4.18 4.18 0 0 1-.4 1 3.37 3.37 0 0 0-.4 1.2v.2h4.1a.1.1 0 0 0 .1-.1l.1-.1V17a1.09 1.09 0 0 0-.1-.5c-.1-.2-.2-.3-.2-.5-.2-.3-.3-.6-.6-1.1s-.4-.9-.6-1.3-.5-.9-.8-1.5zM80 21.2c.1-.1.1-.2.2-.3l.2-.2c.1 0 .1-.1.3-.2a1.38 1.38 0 0 0 .4-.3 1.38 1.38 0 0 0 .4-.3c.1-.1.2-.2.3-.2a.35.35 0 0 1 .2-.1c.1-.1.2-.1.3-.2s.2-.1.3-.2.2-.1.2-.2a.1.1 0 0 0 .1-.1c0-.1.1 0 .1 0h.1a8.64 8.64 0 0 1 1.3 1.4 15.93 15.93 0 0 0 1.3 1.3 2.51 2.51 0 0 0 .7.4 2 2 0 0 0 .8.1h.5c.2 0 .3-.1.4-.3v-.5a4.14 4.14 0 0 0-.5-1.9 4.43 4.43 0 0 0-1.2-1.5c-.1 0-.2-.2-.4-.3l-.6-.6c-.2-.2-.5-.4-.8-.7s-.5-.5-.8-.7l-.6-.6-.3-.3a5.24 5.24 0 0 1-1-1.1l-.9-1.2a3.51 3.51 0 0 1-.6-1.4 3.89 3.89 0 0 1-.2-1.5 2.73 2.73 0 0 1 .4-1.6c.3-.5.6-.9.9-1.4a.35.35 0 0 1 .2-.1l.2-.2a8.58 8.58 0 0 1 2-1.3 5.93 5.93 0 0 1 2.3-.5 9 9 0 0 1 1.8.2 4.71 4.71 0 0 1 1.5.6 14.63 14.63 0 0 1 1.3.9 15.93 15.93 0 0 1 1.3 1.3 1.76 1.76 0 0 1 .4.5 1.08 1.08 0 0 1 .1.6v.2l-.2.2-.3.3a1.38 1.38 0 0 1-.4.3 2.65 2.65 0 0 0-.6.5 2.65 2.65 0 0 1-.6.5c-.2.2-.3.3-.4.3h-.3a.1.1 0 0 1-.1-.1.35.35 0 0 1-.1-.2c0-.1-.1-.2-.2-.3s-.1-.2-.2-.3-.1-.1-.1-.2l-.2-.2-.3-.3-.3-.3-.2-.2c-.2-.2-.4-.2-.7-.3s-.5-.1-.7-.1a1.48 1.48 0 0 0-.7.1.52.52 0 0 0-.4.2.76.76 0 0 0-.2.5c0 .2-.1.4-.1.7a1.69 1.69 0 0 0 .2.5 1.38 1.38 0 0 0 .3.4l1.7 1.7a.35.35 0 0 0 .2.1c.1.1.2.2.3.2s.2.2.3.2a.31.31 0 0 0 .2.1 12.88 12.88 0 0 1 1.7 1.6l1.5 1.8a10.91 10.91 0 0 0 .6 1.1 9.29 9.29 0 0 1 .5 1 3.81 3.81 0 0 1 .3 1 5.72 5.72 0 0 1 .1 1.4v1a2.47 2.47 0 0 1-.4.9c-.2.2-.4.6-.6.8s-.2.1-.3.3-.3.3-.5.4-.3.3-.5.4-.3.2-.3.3-.2.1-.3.2a1.24 1.24 0 0 0-.3.2 2.19 2.19 0 0 1-.5.3l-.4.2a.76.76 0 0 0-.4.1c-.2 0-.4.1-.6.1s-.4.1-.7.1a4.33 4.33 0 0 0-.5.1h-.2a2.77 2.77 0 0 1-.9-.1c-.3-.1-.6-.1-.9-.2a4.35 4.35 0 0 1-1.9-1 20.59 20.59 0 0 1-1.6-1.5l-.3-.3-.3-.3-.3-.3c-.1-.1-.1-.1-.1-.2a.44.44 0 0 1-.1-.3.77.77 0 0 1-.1-.3 1.24 1.24 0 0 1-.2-.3.77.77 0 0 0-.2-.3zm21.1-5.2a5.92 5.92 0 0 1-.4-.6l-.6-.9a4.05 4.05 0 0 1-.5-.9 1.54 1.54 0 0 0-.4-.6c0-.1-.1-.2-.2-.3s-.2-.3-.3-.5a2.19 2.19 0 0 0-.3-.5 1.44 1.44 0 0 1-.2-.3l-.2-.2c-.1-.1-.2-.3-.3-.4a1.38 1.38 0 0 0-.3-.4c-.1-.1-.1-.2-.2-.2a.35.35 0 0 1-.1-.2.76.76 0 0 0-.2-.4c-.1-.1-.1-.3-.2-.4a.31.31 0 0 1-.1-.2l-.9-1.5a7.74 7.74 0 0 1-.7-1.6v-.3c0-.1.1-.2.2-.3s.2-.1.3-.2c.6 0 1.2-.1 1.8-.1s1.2-.1 1.8-.1h.6V5c0 .1.1.2.2.3s.2.3.3.4.2.3.3.4a.31.31 0 0 1 .1.2 1.55 1.55 0 0 0 .3.6c.2.3.3.7.5 1a9.25 9.25 0 0 1 .5 1 1.55 1.55 0 0 1 .3.6l.2.4c.1.2.2.3.2.4s.1.2.2.4.1.3.2.4a.31.31 0 0 0 .1.2.31.31 0 0 1 .1.2h.2v.1c.2-.5.5-.9.7-1.4s.5-.9.8-1.3a5.9 5.9 0 0 0 .4-.8 3 3 0 0 1 .4-.8c.2-.3.4-.7.6-1a7.05 7.05 0 0 1 .7-.9l.2-.2.2-.2h1.5a.77.77 0 0 1 .3.1.44.44 0 0 1 .3.1h1.6a1.85 1.85 0 0 1 .7.2c.2.1.4.2.4.5v.2c0 .1-.1.2-.2.4l-.2.4-5.1 8.2-.6 1.3v.7c0 1.2 0 2.3.1 3.5s.1 2.3.1 3.5v1.3a.6.6 0 0 1-.6.3 9.15 9.15 0 0 1-1.6.1h-2.7l-.1-.1V16zM129.6 9a1.61 1.61 0 0 1-.3.9 1 1 0 0 1-.9.4 1.85 1.85 0 0 1-.7-.2 7 7 0 0 0-3.5-.9 6.4 6.4 0 0 0-3.4.9 5.89 5.89 0 0 0-2.3 2.4 6.71 6.71 0 0 0-.8 3.5 7.24 7.24 0 0 0 .9 3.7A5.89 5.89 0 0 0 121 22a7.42 7.42 0 0 0 3.4.8 7 7 0 0 0 3.5-.9 1.45 1.45 0 0 1 .7-.2 1 1 0 0 1 .9.4 1.33 1.33 0 0 1 .3.8 1.42 1.42 0 0 1-.2.6 1 1 0 0 1-.5.4 7.89 7.89 0 0 1-2.3.9 11.34 11.34 0 0 1-2.5.3 10.07 10.07 0 0 1-4.6-1.1 8.68 8.68 0 0 1-3.4-3.2 10 10 0 0 1-1.3-5 9.39 9.39 0 0 1 1.2-4.7 8.72 8.72 0 0 1 3.3-3.3 9.39 9.39 0 0 1 4.7-1.2A10.77 10.77 0 0 1 129 8a1 1 0 0 1 .6 1zm17.7 11.7a9 9 0 0 1-3.1 3.3 9 9 0 0 1-9 0 8.22 8.22 0 0 1-3.1-3.3 10.59 10.59 0 0 1 0-9.4 8.22 8.22 0 0 1 3.1-3.3 9 9 0 0 1 9 0 8.22 8.22 0 0 1 3.1 3.3 10.59 10.59 0 0 1 0 9.4zm-2.3-8.2a5.9 5.9 0 0 0-2.2-2.5 5.61 5.61 0 0 0-3.1-.9 5.38 5.38 0 0 0-3.1.9 7.28 7.28 0 0 0-2.2 2.4 8.06 8.06 0 0 0 0 7 5.87 5.87 0 0 0 5.3 3.4 5.38 5.38 0 0 0 3.1-.9 6.75 6.75 0 0 0 2.2-2.5 6.94 6.94 0 0 0 .8-3.5 7.73 7.73 0 0 0-.8-3.4zm21.4 8.2a8.22 8.22 0 0 1-3.1 3.3 9 9 0 0 1-9 0 8.22 8.22 0 0 1-3.1-3.3 9.32 9.32 0 0 1-1.1-4.7 10.49 10.49 0 0 1 1.1-4.7 8.22 8.22 0 0 1 3.1-3.3 9 9 0 0 1 9 0 8.22 8.22 0 0 1 3.1 3.3 10.59 10.59 0 0 1 0 9.4zm-2.4-8.2a5.87 5.87 0 0 0-5.3-3.4 5.38 5.38 0 0 0-3.1.9 7.28 7.28 0 0 0-2.2 2.4 8.06 8.06 0 0 0 0 7 5.87 5.87 0 0 0 5.3 3.4 5.38 5.38 0 0 0 3.1-.9 6.75 6.75 0 0 0 2.2-2.5 7.84 7.84 0 0 0 .8-3.5 6.57 6.57 0 0 0-.8-3.4zm20.1 11.3a1 1 0 0 1-.4.9 1.78 1.78 0 0 1-1 .4 1.38 1.38 0 0 1-.9-.5l-6.3-8.1-2.9 2.7v4.5a1 1 0 0 1-.4.9 1.49 1.49 0 0 1-.9.4 1.09 1.09 0 0 1-.9-.4 1.4 1.4 0 0 1-.3-.9V8.2a1.22 1.22 0 0 1 .4-.9 1 1 0 0 1 .9-.4 1.22 1.22 0 0 1 .9.3 1.22 1.22 0 0 1 .3.9v8l9.2-8.9a1.43 1.43 0 0 1 1-.4.91.91 0 0 1 .8.4 1.8 1.8 0 0 1 .4.9 1 1 0 0 1-.4.8l-6.1 5.8 6.4 8.2a2 2 0 0 1 .2.9z" transform="translate(-.74)"/>
  <path id="Oval" fill="#FD9B6F" class="cls-3" d="M136.5 15.7a3.36 3.36 0 0 1 3.4-2.7 3.44 3.44 0 0 1 3.4 2.8" transform="translate(-.74)"/>
  <path id="Oval-Copy" fill="#FD9B6F" class="cls-3" d="M155.5 15.7a3.36 3.36 0 0 1 3.4-2.7 3.44 3.44 0 0 1 3.4 2.8" transform="translate(-.74)"/>
  <path id="Rectangle" fill="#F95E74" class="cls-1" d="M5.74 0h22a5 5 0 0 1 5 5v22a5 5 0 0 1-5 5h-22a5 5 0 0 1-5-5V5a5 5 0 0 1 5-5z" transform="translate(-.74)"/>
  <g id="Group-2">
    <path id="COOK-Copy" d="M16.84 20.5a6.76 6.76 0 0 1-.9 3.5 6.42 6.42 0 0 1-2.4 2.5 6.65 6.65 0 0 1-3.4.9 6.65 6.65 0 0 1-3.4-.9 6.42 6.42 0 0 1-2.4-2.5 7 7 0 0 1-.9-3.5 7.4 7.4 0 0 1 .9-3.6 6.42 6.42 0 0 1 2.4-2.5 6.65 6.65 0 0 1 3.4-.9 6.65 6.65 0 0 1 3.4.9 6.42 6.42 0 0 1 2.4 2.5 7.4 7.4 0 0 1 .9 3.6zm-2.1 0a5.54 5.54 0 0 0-.6-2.6 4.94 4.94 0 0 0-1.6-1.9 4 4 0 0 0-2.4-.7 4.81 4.81 0 0 0-2.4.7 4 4 0 0 0-1.6 1.8 6 6 0 0 0-.6 2.7 5.54 5.54 0 0 0 .6 2.6 4 4 0 0 0 1.6 1.8 4.81 4.81 0 0 0 2.4.7 4 4 0 0 0 2.4-.7 4 4 0 0 0 1.6-1.8 5.83 5.83 0 0 0 .6-2.6zm16.6 0a6.76 6.76 0 0 1-.9 3.5A7.18 7.18 0 0 1 28 26.5a6.65 6.65 0 0 1-3.4.9 6.46 6.46 0 0 1-5.8-3.4 7 7 0 0 1-.9-3.5 6.76 6.76 0 0 1 .9-3.5 6.42 6.42 0 0 1 2.4-2.5 6.65 6.65 0 0 1 3.4-.9 6.46 6.46 0 0 1 5.8 3.4 7 7 0 0 1 .94 3.5zm-2 0a5.54 5.54 0 0 0-.6-2.6A5.19 5.19 0 0 0 27 16a4.46 4.46 0 0 0-4.8 0 3.53 3.53 0 0 0-1.6 1.8 7.6 7.6 0 0 0-.6 2.6 5.54 5.54 0 0 0 .6 2.6 4 4 0 0 0 1.6 1.8 4.81 4.81 0 0 0 2.4.7 4.44 4.44 0 0 0 4-2.5 4.3 4.3 0 0 0 .74-2.5z" transform="translate(-.74)" fill="#fff"/>
    <path id="Oval-Copy-2" fill="#FD9B6F" class="cls-5" d="M6.64 20.2a.75.75 0 0 0 .5.7.62.62 0 0 0 .8-.5 1.94 1.94 0 0 1 3.8.1 1.05 1.05 0 0 0 .9.5.62.62 0 0 0 .5-.8 3.23 3.23 0 0 0-3.2-2.6 3.42 3.42 0 0 0-3.3 2.6z" transform="translate(-.74)"/>
    <path id="Oval-Copy-3" fill="#FD9B6F" class="cls-5" d="M21.14 20.2a.66.66 0 0 0 .5.8.62.62 0 0 0 .8-.5 1.94 1.94 0 0 1 3.8.1 1.27 1.27 0 0 0 .9.4.62.62 0 0 0 .5-.8 3.23 3.23 0 0 0-3.2-2.6 3.42 3.42 0 0 0-3.3 2.6z" transform="translate(-.74)"/>
  </g>
</svg>