<svg xmlns="http://www.w3.org/2000/svg" width="25" height="26" viewBox="0 0 25 26">
    <g fill="#fc7786" fill-rule="evenodd">
        <path fill-rule="nonzero" d="M24.555 11.786a.647.647 0 0 0-.893-.108.61.61 0 0 0-.11.871.718.718 0 0 1 0 .902 13.948 13.948 0 0 1-5.838 4.292A6.836 6.836 0 0 0 19.636 13a6.837 6.837 0 0 0-1.905-4.727 14.046 14.046 0 0 1 4.05 2.438.648.648 0 0 0 .898-.053.61.61 0 0 0-.055-.876 15.06 15.06 0 0 0-.442-.368c-2.72-2.174-6.159-3.371-9.682-3.371-4.742 0-9.136 2.093-12.055 5.743a1.933 1.933 0 0 0 0 2.428c2.92 3.65 7.313 5.743 12.055 5.743s9.136-2.093 12.055-5.743a1.933 1.933 0 0 0 0-2.428zM1.448 13.45a.718.718 0 0 1 0-.902 13.947 13.947 0 0 1 5.836-4.291A6.837 6.837 0 0 0 5.364 13c0 1.83.73 3.499 1.92 4.742a13.947 13.947 0 0 1-5.836-4.291zm11.06 5.265h-.016C9.262 18.712 6.637 16.15 6.637 13c0-3.15 2.626-5.712 5.855-5.716h.014c3.23.003 5.857 2.566 5.857 5.716 0 3.15-2.626 5.712-5.855 5.716z"/>
        <path fill-rule="nonzero" d="M12.5 10.367c-1.489 0-2.7 1.181-2.7 2.633s1.211 2.633 2.7 2.633 2.7-1.181 2.7-2.633-1.211-2.633-2.7-2.633zm0 4.025c-.787 0-1.427-.625-1.427-1.392 0-.767.64-1.392 1.427-1.392s1.427.625 1.427 1.392c0 .767-.64 1.392-1.427 1.392z"/>
        <path d="M12.5 0a.628.628 0 0 0-.636.62v2.327c0 .343.285.62.636.62a.628.628 0 0 0 .636-.62V.62A.628.628 0 0 0 12.5 0zM12.5 22.433a.628.628 0 0 0-.636.62v2.327c0 .342.285.62.636.62a.628.628 0 0 0 .636-.62v-2.327a.629.629 0 0 0-.636-.62zM21.928 3.808a.648.648 0 0 0-.9 0l-1.187 1.157a.61.61 0 0 0 0 .878.643.643 0 0 0 .45.181c.163 0 .326-.06.45-.181l1.187-1.158a.61.61 0 0 0 0-.877zM5.16 20.157a.648.648 0 0 0-.9 0l-1.188 1.158a.61.61 0 0 0 0 .877.643.643 0 0 0 .45.182c.163 0 .326-.06.45-.182l1.187-1.157a.61.61 0 0 0 0-.878zM5.16 4.965L3.971 3.808a.648.648 0 0 0-.9 0 .61.61 0 0 0 0 .877l1.187 1.158a.643.643 0 0 0 .45.181c.163 0 .326-.06.45-.181a.61.61 0 0 0 0-.878zM21.928 21.315l-1.187-1.158a.648.648 0 0 0-.9 0 .61.61 0 0 0 0 .878l1.187 1.157a.643.643 0 0 0 .45.182c.163 0 .326-.06.45-.182a.61.61 0 0 0 0-.877z"/>
    </g>
</svg>
