<svg xmlns="http://www.w3.org/2000/svg" width="23" height="25" viewBox="0 0 23 25">
    <g fill="#fc7786" fill-rule="evenodd" opacity=".503">
        <path fill-rule="nonzero" stroke="#fc7786" stroke-linecap="round" stroke-linejoin="round" stroke-width=".3" d="M21.541 12.05h-3.393V1.45a.45.45 0 0 0-.283-.416.465.465 0 0 0-.5.098l-1.299 1.272-1.299-1.272a.465.465 0 0 0-.648 0l-1.3 1.272-1.298-1.272a.465.465 0 0 0-.648 0l-1.3 1.272-1.298-1.272a.465.465 0 0 0-.649 0L6.327 2.404 5.03 1.132a.465.465 0 0 0-.649 0L3.081 2.404 1.782 1.132a.465.465 0 0 0-.645-.003.443.443 0 0 0-.137.332v20.203C1 22.952 2.07 24 3.385 24h16.23C20.93 24 22 22.952 22 21.664V12.5a.454.454 0 0 0-.459-.45zM3.385 23.103c-.81 0-1.468-.645-1.468-1.438V2.534l.84.823c.18.175.47.175.649 0l1.298-1.272 1.3 1.272c.178.175.469.175.648 0L7.95 2.085 9.25 3.357c.179.175.469.175.648 0l1.299-1.272 1.299 1.272c.179.175.47.175.648 0l1.3-1.272 1.298 1.272c.18.175.47.175.648 0l.84-.823V12.5l.002.012v9.152c0 .542.19 1.04.507 1.438H3.385zm17.698-1.438c0 .793-.659 1.438-1.468 1.438-.809 0-1.467-.645-1.467-1.438V12.95h2.935v8.715z"/>
        <path d="M4.977 8.077h-.893a.454.454 0 0 0-.459.45c0 .247.205.448.459.448h.893a.454.454 0 0 0 .459-.449.454.454 0 0 0-.459-.45zM4.977 11.615h-.893a.454.454 0 0 0-.459.45c0 .248.205.449.459.449h.893a.454.454 0 0 0 .459-.45.454.454 0 0 0-.459-.449zM14.847 8.077H7.584a.454.454 0 0 0-.459.45c0 .247.205.448.459.448h7.263a.454.454 0 0 0 .459-.449.454.454 0 0 0-.459-.45zM14.847 11.615H7.584a.454.454 0 0 0-.459.45c0 .248.205.449.459.449h7.263a.454.454 0 0 0 .459-.45.454.454 0 0 0-.459-.449zM4.977 15.154h-.893a.454.454 0 0 0-.459.45c0 .247.205.448.459.448h.893a.454.454 0 0 0 .459-.449.454.454 0 0 0-.459-.45zM14.847 15.154H7.584a.454.454 0 0 0-.459.45c0 .247.205.448.459.448h7.263a.454.454 0 0 0 .459-.449.454.454 0 0 0-.459-.45zM4.977 18.692h-.893a.454.454 0 0 0-.459.45c0 .248.205.449.459.449h.893a.454.454 0 0 0 .459-.45.454.454 0 0 0-.459-.449zM14.847 18.692H7.584a.454.454 0 0 0-.459.45c0 .248.205.449.459.449h7.263a.454.454 0 0 0 .459-.45.454.454 0 0 0-.459-.449z"/>
    </g>
</svg>
