<svg xmlns="http://www.w3.org/2000/svg" width="25" height="26" viewBox="0 0 25 26">
    <path fill="#7B7C7C" fill-rule="nonzero" d="M22.147 1.081a.623.623 0 0 1 0-.895.66.66 0 0 1 .918 0l.087.085a.623.623 0 0 1 0 .895.655.655 0 0 1-.459.186.655.655 0 0 1-.459-.186l-.087-.085zm-.087 7.052c1.034 0 1.876.821 1.876 1.831s-.842 1.832-1.876 1.832c-1.035 0-1.877-.822-1.877-1.832 0-1.01.842-1.831 1.877-1.831zm0 1.266a.573.573 0 0 0-.58.565c0 .312.26.565.58.565.319 0 .578-.253.578-.565a.573.573 0 0 0-.578-.565zM25 17.31v.76c0 .99-.825 1.794-1.838 1.794h-.541v3.415c0 1.5-1.252 2.722-2.79 2.722H5.169c-1.538 0-2.79-1.221-2.79-2.722v-3.415h-.54C.825 19.863 0 19.058 0 18.07v-.76c0-.988.825-1.793 1.839-1.793h.54v-1.872c0-.35.29-.633.65-.633h18.943c.358 0 .649.284.649.633v1.872h.54c1.014 0 1.839.805 1.839 1.794zm-22.62-.527h-.542a.535.535 0 0 0-.54.528v.76c0 .29.242.527.54.527h.541v-1.815zm18.943-2.504H3.677v9c0 .802.67 1.455 1.492 1.455H19.83c.823 0 1.492-.653 1.492-1.455v-9zm2.38 3.032a.535.535 0 0 0-.541-.528h-.541v1.815h.54c.299 0 .541-.237.541-.528v-.76zM20.348 5.076a.655.655 0 0 0 .46-.186l.087-.085a.622.622 0 0 0 0-.896.66.66 0 0 0-.918 0l-.087.085a.622.622 0 0 0 0 .896.655.655 0 0 0 .458.186zm-5.378 6.683c0 .35.29.633.649.633a.641.641 0 0 0 .649-.633c0-.5.417-.907.93-.907a.92.92 0 0 1 .929.907c0 .35.29.633.649.633a.641.641 0 0 0 .649-.633c0-1.199-1-2.174-2.228-2.174-1.228 0-2.227.975-2.227 2.174zM2.85 10.811a.633.633 0 0 1 .482-.762l7.05-1.626-.124-.514c-.234-.963.38-1.931 1.366-2.159l.757-.174c.986-.228 1.979.37 2.212 1.333l.125.513 7.05-1.626a.65.65 0 0 1 .78.47.633.633 0 0 1-.482.762L3.631 11.282a.646.646 0 0 1-.78-.47zm8.67-3.193l.125.513 1.81-.417-.125-.514a.54.54 0 0 0-.65-.392l-.757.175a.528.528 0 0 0-.402.635z"/>
</svg>
