<svg xmlns="http://www.w3.org/2000/svg" width="23" height="23" viewBox="0 0 23 23">
    <g fill="#fff" fill-rule="nonzero" opacity=".5">
        <path d="M11.198 13.161a2.88 2.88 0 0 1 .144-.315c.035-.066.076-.129.116-.193a3.154 3.154 0 0 1 .233-.327l.091-.104a3.12 3.12 0 0 1 .31-.3c.04-.034.077-.07.118-.101.052-.04.106-.074.16-.11a2.867 2.867 0 0 1 .691-.34 2.279 2.279 0 0 1 .361-.078c.203-.027.401-.025.589.007l.013.002a1.6 1.6 0 0 1 .673.282c.02.014.034.034.053.05.053.042.1.09.148.14.032.035.068.066.097.104.062.08.117.165.164.258l.001.005c.123.245.192.527.192.837 0 1.15-.896 2.33-2.038 2.683a2.16 2.16 0 0 1-.638.1c-.372 0-.718-.106-.998-.313-.422-.31-.655-.806-.655-1.394a2.5 2.5 0 0 1 .175-.892zm3.079-.807a.673.673 0 0 0-.228-.154.794.794 0 0 0-.137-.048c-.035-.008-.072-.012-.11-.016a1.013 1.013 0 0 0-.218-.003 1.356 1.356 0 0 0-.529.16l-.051.026c-.172.092-.333.21-.476.35l-.022.021a2.327 2.327 0 0 0-.357.461c-.014.025-.029.05-.042.076-.01.016-.016.034-.025.05.212.237.57.307.98.181.507-.157.973-.572 1.233-1.087l-.018-.017zm-2.094 2.41c.22.161.531.19.878.084.544-.168 1.023-.637 1.267-1.166-.303.268-.65.476-1.014.59a2.15 2.15 0 0 1-.633.098c-.288 0-.558-.067-.794-.19.026.252.126.458.296.583zM5.343 14.411c.462-.143.92-.081 1.258.168.325.24.51.633.51 1.08 0 .858-.666 1.736-1.516 1.999-.164.05-.328.076-.486.076a1.29 1.29 0 0 1-.773-.244c-.324-.239-.51-.631-.51-1.078 0-.859.667-1.738 1.517-2zm-.501 2.393c.12.09.298.104.501.04.497-.153.917-.697.917-1.186 0-.124-.028-.293-.164-.393a.444.444 0 0 0-.266-.079.795.795 0 0 0-.235.039c-.497.153-.917.697-.917 1.186 0 .125.028.294.164.393zM17.269 13.56c.462-.144.92-.082 1.258.168.324.239.51.632.51 1.078 0 .859-.666 1.737-1.517 2-.164.05-.327.076-.485.076a1.29 1.29 0 0 1-.773-.244c-.324-.239-.51-.631-.51-1.078 0-.859.667-1.738 1.517-2zm-.501 2.393c.12.088.298.102.501.04.497-.154.917-.698.917-1.187 0-.124-.028-.293-.164-.393a.444.444 0 0 0-.266-.079.795.795 0 0 0-.235.039c-.497.154-.917.697-.917 1.187 0 .124.028.293.164.393zM8.324 17.365c.345-.106.692-.06.951.132.25.184.392.483.392.821 0 .62-.48 1.253-1.091 1.443a1.215 1.215 0 0 1-.36.056.987.987 0 0 1-.59-.187 1.003 1.003 0 0 1-.393-.822c0-.62.48-1.253 1.091-1.443zm-.193 1.578c.038.028.112.029.193.004.258-.08.491-.38.491-.63 0-.03-.005-.104-.046-.134a.141.141 0 0 0-.084-.022.38.38 0 0 0-.109.018c-.257.08-.49.379-.49.629 0 .03.004.104.045.135zM8.88 14.697a1.216 1.216 0 0 1-.36.056.988.988 0 0 1-.591-.188 1.001 1.001 0 0 1-.392-.82c0-.62.48-1.254 1.091-1.443.346-.107.692-.06.95.131.25.184.393.484.393.822 0 .619-.48 1.252-1.09 1.442zm.193-1.578a.143.143 0 0 0-.084-.022.38.38 0 0 0-.109.018c-.257.08-.49.38-.49.63 0 .03.004.104.045.134.037.028.111.029.193.004.257-.08.49-.379.49-.629.001-.03-.004-.105-.045-.135zM18.186 9.271c0-.663.513-1.342 1.169-1.545.367-.115.734-.063 1.007.138.263.194.414.51.414.869 0 .663-.514 1.342-1.17 1.545-.128.04-.257.06-.382.06-.23 0-.447-.068-.625-.198-.263-.194-.413-.51-.413-.869zm.919.182c.052.04.147.043.25.011.303-.094.569-.435.569-.731 0-.05-.009-.14-.067-.183a.2.2 0 0 0-.12-.032.453.453 0 0 0-.13.021c-.304.095-.57.436-.57.732 0 .05.01.14.068.182z"/>
        <path d="M1.988 15.065c-.007-.03-.02-.055-.03-.082-.01-.026-.016-.054-.029-.078 0-.002-.002-.003-.003-.005a.516.516 0 0 0-.238-.23c-.011-.006-.024-.01-.036-.015a.657.657 0 0 0-.18-.046c-.01-.001-.017-.004-.027-.004a.858.858 0 0 0-.17.005h-.021c-.005.001-.01.004-.016.004a1.08 1.08 0 0 0-.163.04c-.034.011-.072.028-.109.043-.022.01-.045.017-.068.027a.39.39 0 0 1-.075.023l-.026.008a.429.429 0 0 1-.093.005H.692a.407.407 0 0 1-.098-.019H.59c-.021-.007-.04-.019-.06-.03-.012-.005-.026-.01-.037-.017a.426.426 0 0 1-.196-.358v-.951c0-.917.431-1.799 1.153-2.363l7.4-7a.425.425 0 0 1 .564-.02c.133.11.33.132.556.062.53-.164.976-.743.976-1.264a.626.626 0 0 0-.062-.284.427.427 0 0 1 .088-.502l1.269-1.2a.443.443 0 0 1 .034-.029c.991-.756 2.207-.992 3.115-.594l6.3 3.039c.716.31 1.18 1.035 1.181 1.854V11.796a.427.427 0 0 1-.502.42.923.923 0 0 0-.448.032c-.639.198-1.18.899-1.18 1.53 0 .244.085.44.237.553.17.125.416.148.692.062.169-.053.34-.148.509-.283a.426.426 0 0 1 .693.331v.922c0 .916-.621 1.711-1.493 1.928L2.772 22.77A1.989 1.989 0 0 1 .296 20.84v-3.552a.423.423 0 0 1 .359-.421c.009-.001.018-.005.026-.007.378-.07.751-.337 1.006-.684.121-.167.211-.351.266-.541.016-.054.033-.107.042-.161.012-.077.017-.15.016-.22-.001-.037-.008-.07-.012-.104-.004-.028-.004-.058-.01-.084zm19.347-11.06L15.033.964c-.609-.267-1.48-.077-2.225.484l-1.052.995c.027.114.04.233.04.356 0 .892-.692 1.804-1.575 2.078a1.508 1.508 0 0 1-1.016-.02L2.426 11.27l7.328-2.182c.187-.725.779-1.387 1.508-1.613.477-.147.951-.084 1.302.174.172.127.304.292.394.485l8.581-2.554c.264-.05.417-.232.455-.54.003-.02.012-.037.018-.055a1.147 1.147 0 0 0-.677-.98zM10.538 9.552c0 .135.031.32.18.429.132.097.324.113.544.045.066-.02.131-.047.194-.08.377-.195.682-.59.761-.986a.98.98 0 0 0 .02-.194 1.79 1.79 0 0 1-.008-.065l.003-.03a.468.468 0 0 0-.174-.338.483.483 0 0 0-.292-.086.856.856 0 0 0-.253.04c-.495.154-.912.67-.965 1.162v.012l-.01.091zM1.148 20.84c0 .354.16.682.44.899.278.218.634.293.961.213l18.606-5.481a1.14 1.14 0 0 0 .864-1.107v-.19a1.782 1.782 0 0 1-.099.033c-.532.166-1.06.096-1.448-.19-.376-.277-.583-.717-.583-1.238 0-1.005.782-2.034 1.78-2.343.116-.036.234-.062.35-.074V6.322c-.087.038-.18.066-.277.084l-8.666 2.582c-.003.02-.01.04-.013.06-.007.046-.018.09-.028.135a1.988 1.988 0 0 1-.178.486 2.125 2.125 0 0 1-.173.287c-.028.04-.057.08-.088.12a2.35 2.35 0 0 1-.126.143c-.033.036-.066.073-.102.107-.048.045-.099.086-.15.127-.037.03-.071.06-.11.088-.059.042-.121.078-.184.114-.034.02-.067.042-.102.06a1.717 1.717 0 0 1-.627.19l-.084.006c-.033.003-.067.008-.1.008-.058 0-.115-.006-.171-.012-.01-.002-.022-.001-.033-.003a1.371 1.371 0 0 1-.595-.236 1.23 1.23 0 0 1-.2-.19l-.045-.056a1.245 1.245 0 0 1-.136-.215l-.01-.02a1.352 1.352 0 0 1-.079-.208L2.05 12.27c-.523.112-.902.58-.902 1.115v.381a1.75 1.75 0 0 1 .382-.008c.106.009.207.03.303.058.034.01.066.024.098.037a1.386 1.386 0 0 1 .283.142c.066.044.126.093.183.147.015.013.032.022.046.037.005.004.007.01.012.016.008.008.017.014.024.022l.001.001c.04.045.07.1.105.15.028.041.06.079.084.123l.014.02c.035.066.055.139.08.21.012.036.03.07.04.107.026.094.037.194.046.295.002.028.01.055.011.084l.002.013c.003.11-.008.224-.024.34-.003.017 0 .033-.003.05a2.29 2.29 0 0 1-.092.359c-.003.008-.003.017-.006.025-.014.041-.033.083-.065.152-.021.051-.042.102-.067.152-.01.02-.017.039-.027.058-.024.046-.053.088-.08.131-.025.04-.05.08-.075.117a.9.9 0 0 1-.052.08c-.07.096-.147.185-.212.253l-.038.044c-.03.03-.061.055-.091.084l-.043.04a2.713 2.713 0 0 1-.22.178l-.041.03c-.08.056-.162.106-.245.151l-.038.022c-.097.05-.195.095-.296.13v3.224h.002z"/>
    </g>
</svg>
