<svg xmlns="http://www.w3.org/2000/svg" width="26" height="17" viewBox="0 0 26 17">
    <g fill="#fff" fill-rule="evenodd" opacity=".5">
        <path fill-rule="nonzero" d="M24.234 6.082C23.1 5.041 21.58 4.145 19.95 3.56l-.003-.001-.006-.002a13.807 13.807 0 0 0-2.3-.608C17.183 2.377 15.665.719 13.037.09c-.437-.104-.89 0-1.241.288-.354.29-.557.722-.557 1.187v2.148C8.77 4.832 6.813 6.654 5.76 7.774c-.157-.814-.504-1.843-1.27-2.632C3.03 3.64.678 3.702.58 3.706a.556.556 0 0 0-.53.544c-.003.103-.063 2.52 1.397 4.022.363.373.778.646 1.2.847a4.246 4.246 0 0 0-1.2.854c-1.46 1.503-1.4 3.92-1.396 4.022.01.297.24.535.529.545l.086.001c.45 0 2.501-.078 3.823-1.438.773-.796 1.12-1.848 1.275-2.677.771.82 2.028 2.016 3.618 3.039v1.969c0 .482.216.925.592 1.213a1.433 1.433 0 0 0 1.301.237c1.325-.407 2.327-1.15 2.791-1.541.448.067.894.102 1.33.102 1.494 0 2.99-.259 4.446-.77h.003C23.239 13.485 26 10.984 26 9.098c0-.899-.627-1.97-1.766-3.016zM2.223 7.476c-.75-.771-.978-1.928-1.047-2.616.667.07 1.787.304 2.54 1.079.749.77.978 1.905 1.047 2.579-.657-.057-1.789-.27-2.54-1.042zm1.493 4.83c-.748.77-1.871 1.006-2.54 1.078.07-.689.299-1.844 1.047-2.614.751-.774 1.88-1.008 2.542-1.078-.068.686-.295 1.839-1.049 2.614zm8.618-10.74c0-.12.052-.23.143-.305a.355.355 0 0 1 .312-.073 7.574 7.574 0 0 1 3.105 1.574 9.55 9.55 0 0 0-3.56.519V1.565zm-1.371 14.238a.366.366 0 0 1-.334-.06.382.382 0 0 1-.151-.31v-1.326c.723.384 1.445.686 2.16.906-.44.283-1.01.586-1.675.79zm4.434-1.486c-.457 0-.927-.043-1.398-.127-1.232-.222-2.506-.735-3.787-1.525-2.019-1.244-3.538-2.864-4.15-3.568.779-.896 3.031-3.278 5.93-4.489l.01-.004c1.157-.482 2.299-.726 3.395-.726.616 0 1.242.049 1.862.146.473.074.945.177 1.413.306-1.15 1.255-1.878 3.103-1.878 4.893 0 1.635.704 3.399 1.812 4.66-1.06.288-2.135.434-3.21.434zm4.383-.815c-1.14-1.058-1.891-2.738-1.891-4.278 0-1.685.799-3.49 1.97-4.502 3.134 1.206 5.046 3.334 5.046 4.375 0 1.06-1.942 3.205-5.125 4.405z"/>
        <path d="M21.801 8.409a.556.556 0 0 0-.547.563v.253c0 .31.245.563.547.563a.556.556 0 0 0 .548-.563v-.253a.556.556 0 0 0-.548-.563zM16.132 5.312a.537.537 0 0 0-.774.02 4 4 0 0 0-.154.178.574.574 0 0 0 .066.793.536.536 0 0 0 .771-.067c.036-.044.073-.087.111-.128a.575.575 0 0 0-.02-.796zM16.069 12.203c-.609-.72-.958-1.814-.958-3 0-.664.113-1.317.327-1.889a.568.568 0 0 0-.314-.727.543.543 0 0 0-.708.323 6.62 6.62 0 0 0-.4 2.293c0 1.453.447 2.816 1.226 3.739a.54.54 0 0 0 .773.056.575.575 0 0 0 .054-.795z"/>
    </g>
</svg>
