<svg xmlns="http://www.w3.org/2000/svg" width="14" height="24" viewBox="0 0 14 24">
    <g fill="#fff" fill-rule="evenodd" opacity=".5">
        <path d="M11.186 16.219c.257 0 .465-.21.465-.469a.467.467 0 0 0-.465-.469.467.467 0 0 0-.465.469c0 .259.208.469.465.469z"/>
        <path fill-rule="nonzero" d="M3.317 8.559c-.315 2.216-1.069 3.551-1.798 4.843-.77 1.361-1.496 2.647-1.496 4.692C.023 21.785 3.217 24 7 24c3.8 0 6.977-2.229 6.977-5.906 0-2.04-.73-3.34-1.503-4.715-.728-1.296-1.48-2.635-1.79-4.82a3.747 3.747 0 0 0-1.88-2.744c.7-.27 1.496-.697 2.162-1.369C12.522 2.88 12.737.606 12.746.51a.472.472 0 0 0-.135-.373.463.463 0 0 0-.37-.135c-.095.008-2.35.225-3.905 1.793-.691.696-1.117 1.535-1.379 2.261A3.25 3.25 0 0 0 4.21 2.531.467.467 0 0 0 3.744 3c0 .259.208.469.465.469 1.135 0 2.083.824 2.285 1.91a3.737 3.737 0 0 0-3.177 3.18zm5.677-6.101c.86-.868 2.018-1.252 2.717-1.413-.16.704-.541 1.871-1.402 2.738-.86.867-2.017 1.26-2.717 1.428.16-.711.54-1.886 1.402-2.753zM7 6.28a2.81 2.81 0 0 1 2.762 2.41c.335 2.36 1.168 3.843 1.903 5.15.741 1.32 1.382 2.46 1.382 4.253 0 2.925-2.487 4.968-6.047 4.968-3.56 0-6.047-2.043-6.047-4.968 0-1.797.637-2.924 1.374-4.229.736-1.303 1.571-2.781 1.91-5.174A2.81 2.81 0 0 1 7 6.281z"/>
        <path d="M8.471 22.01c2.481-.415 3.923-2.224 3.587-4.5a.465.465 0 1 0-.92.138c.26 1.758-.847 3.107-2.819 3.437a.468.468 0 0 0 .152.924z"/>
    </g>
</svg>
