<svg xmlns="http://www.w3.org/2000/svg" width="26" height="20" viewBox="0 0 26 20">
    <g fill="#fff" fill-rule="evenodd" opacity=".5">
        <path fill-rule="nonzero" d="M23.79 3.484c-1.186-.93-2.86-1.692-4.974-2.263C14.749.12 10.162.002 8.379.002 3.759.002 0 3.703 0 8.252v3.496c0 4.549 3.759 8.25 8.379 8.25 2.13 0 3.73-.657 5.424-1.353 1.752-.72 3.563-1.463 6.11-1.463 3.357 0 6.087-2.689 6.087-5.993V7.694c0-1.642-.744-3.058-2.21-4.21zm-.428 8.548c.192.201.513.21.718.021a6.03 6.03 0 0 0 .904-1.058v.194c0 2.753-2.274 4.993-5.07 4.993-2.751 0-4.658.783-6.502 1.54-1.597.656-3.106 1.276-5.033 1.276-3.901 0-7.103-3.003-7.348-6.784a8.406 8.406 0 0 0 7.348 4.288c2.13 0 3.73-.657 5.424-1.353 1.752-.719 3.563-1.463 6.11-1.463.19 0 .381-.009.57-.026a.502.502 0 0 0 .457-.544.506.506 0 0 0-.553-.452 5.192 5.192 0 0 1-.473.022c-2.751 0-4.658.783-6.502 1.54-1.597.657-3.106 1.276-5.033 1.276-4.06 0-7.363-3.252-7.363-7.25 0-3.997 3.303-7.25 7.363-7.25 1.742 0 6.22.115 10.168 1.183 4.271 1.155 6.437 3.008 6.437 5.509a4.975 4.975 0 0 1-1.6 3.631.495.495 0 0 0-.022.707z"/>
        <path d="M22.944 12.351a.511.511 0 0 0-.676-.24l-.012.006a.497.497 0 0 0-.227.671.509.509 0 0 0 .679.225.497.497 0 0 0 .236-.662zM12.045 2.143l-.026-.002a.506.506 0 0 0-.547.459.503.503 0 0 0 .466.538l.026.002a.505.505 0 0 0 .547-.458.503.503 0 0 0-.466-.539z"/>
        <path d="M23.652 6.347c-.504-.98-1.625-1.828-3.332-2.518-1.38-.559-2.89-.912-3.915-1.11a36.113 36.113 0 0 0-1.91-.314.506.506 0 0 0-.574.426.501.501 0 0 0 .433.565c.636.087 1.26.19 1.856.305 3.488.674 5.87 1.802 6.535 3.097.14.272.208.565.208.896 0 1.65-1.363 2.992-3.04 2.992-1.694 0-3.34.273-5.03.834a33.55 33.55 0 0 0-2.118.81c-.453.184-.92.375-1.384.549-1.172.437-2.07.623-3.002.623-2.94 0-5.332-2.355-5.332-5.25s2.392-5.25 5.332-5.25a47.391 47.391 0 0 1 2.023.044.505.505 0 0 0 .53-.478.503.503 0 0 0-.485-.522l-.3-.011a48.45 48.45 0 0 0-1.768-.033c-3.5 0-6.348 2.804-6.348 6.25s2.848 6.25 6.348 6.25c1.063 0 2.068-.206 3.362-.688.478-.179.954-.373 1.413-.56.668-.274 1.359-.556 2.054-.787 1.584-.525 3.123-.781 4.706-.781 2.236 0 4.055-1.79 4.055-3.992 0-.491-.104-.932-.317-1.347z"/>
        <path fill-rule="nonzero" d="M8.865 3.991c-1.42 0-2.574 1.031-2.574 2.299 0 1.267 1.155 2.299 2.574 2.299 1.42 0 2.575-1.032 2.575-2.3 0-1.267-1.155-2.298-2.575-2.298zm0 3.598c-.86 0-1.559-.583-1.559-1.3 0-.715.7-1.298 1.56-1.298.859 0 1.558.583 1.558 1.299s-.699 1.299-1.559 1.299z"/>
    </g>
</svg>
