<svg xmlns="http://www.w3.org/2000/svg" width="24" height="24" viewBox="0 0 24 24">
    <g fill="#fff" fill-rule="evenodd">
        <path fill-rule="nonzero" d="M23.137 10.895a.4.4 0 0 1-.372-.251c-.305-.765-.958-1.344-1.836-1.632-1.359-.444-3.78-.108-5.336.476a.4.4 0 0 1-.408-.671C16.432 7.7 18.5 6.429 20.094 6.276c1.378-.131 2.635.405 3.362 1.437.558.792.698 1.72.365 2.424a2.9 2.9 0 0 1-.376.612.397.397 0 0 1-.308.146zm-1.958-2.641c.838.274 1.516.767 1.968 1.42.135-.43.008-1.002-.344-1.501-.269-.382-1.065-1.252-2.632-1.102-.826.078-1.86.538-2.812 1.126 1.348-.238 2.8-.278 3.82.057z"/>
        <path fill-rule="nonzero" d="M14.944 8.892a.398.398 0 0 1-.376-.536c.554-1.52.9-3.874.449-5.245-.292-.889-.883-1.543-1.665-1.843a.398.398 0 0 1-.114-.678c.169-.142.375-.27.628-.39.706-.331 1.636-.191 2.429.365 1.034.725 1.572 1.98 1.44 3.356-.15 1.566-1.36 3.557-2.49 4.836a.397.397 0 0 1-.3.135zm.833-6.03c.33 1.004.3 2.406.074 3.729.562-.916 1.008-1.917 1.088-2.746.15-1.566-.722-2.359-1.104-2.627-.504-.354-1.082-.48-1.512-.34.67.45 1.174 1.133 1.454 1.985z"/>
        <path fill-rule="nonzero" d="M14.266 10.161a.4.4 0 0 1-.283-.681c.084-.084.309-.36.587-1.127a.4.4 0 0 1 .076-.128c1.012-1.143 2.16-3.002 2.293-4.38a3.39 3.39 0 0 0 .01-.493.399.399 0 0 1 .158-.336 2.812 2.812 0 0 1 3.663.254c.97.969 1.087 2.53.271 3.633a.401.401 0 0 1-.344.161 3.609 3.609 0 0 0-.527.007c-1.35.13-3.258 1.275-4.447 2.339a.407.407 0 0 1-.126.076c-.708.265-.97.479-1.05.558a.397.397 0 0 1-.281.117zm1.03-1.465l-.015.038c1.255-1.095 3.26-2.31 4.813-2.458.135-.013.272-.016.417-.017a2.005 2.005 0 0 0-.306-2.425 2.01 2.01 0 0 0-2.452-.292c0 .132-.006.257-.018.38-.148 1.54-1.323 3.495-2.44 4.774z"/>
        <path fill-rule="nonzero" d="M21.064 14.15c-.477 0-.875-.17-1.142-.436-1.263-1.261-.547-2.049-.163-2.471.082-.09.205-.225.224-.285-.005-.001-.02-.026-.06-.067-.172-.171-.418-.15-.804-.104-.35.043-.748.092-1.1-.119-1.282-.768-3.685-.512-3.709-.51a.4.4 0 0 1-.327-.679c.945-.943 5.012-1.94 7.196-1.226 1.316.43 2.251 1.426 2.503 2.663.192.949-.052 1.855-.64 2.367-.713.62-1.403.867-1.978.867zM19.51 9.956c.327 0 .68.073.978.37.62.62.109 1.183-.137 1.453-.367.404-.588.647.137 1.37.345.344 1.152.295 2.028-.468.365-.318.515-.948.381-1.605-.092-.458-.47-1.573-1.968-2.063-1.337-.438-3.475-.135-4.932.33.807.057 1.735.223 2.433.641.117.07.357.04.59.011.149-.018.316-.039.49-.039z"/>
        <path fill-rule="nonzero" d="M14.266 10.161a.4.4 0 0 1-.398-.444c.003-.023.257-2.424-.511-3.702-.211-.35-.162-.747-.119-1.096.048-.386.068-.632-.104-.803a.263.263 0 0 0-.08-.063c-.038.014-.178.142-.272.226-.424.383-1.213 1.098-2.476-.163-.59-.588-.705-1.812.432-3.113.512-.587 1.42-.832 2.37-.639 1.24.25 2.238 1.185 2.669 2.498.716 2.18-.284 6.239-1.229 7.182a.398.398 0 0 1-.282.117zm-.223-4.556c.419.697.586 1.623.643 2.43.465-1.456.769-3.59.33-4.924-.49-1.494-1.608-1.87-2.066-1.964-.658-.133-1.29.016-1.609.38-.764.874-.814 1.68-.47 2.025.725.722.969.502 1.373.136.271-.246.836-.757 1.456-.136.456.455.384 1.038.332 1.464-.028.233-.058.474.01.589z"/>
        <path d="M3.619 20.439a.421.421 0 0 1-.183-.041c-.28-.134-.46-.5-.666-.921-.084-.172-.224-.458-.29-.522a.394.394 0 0 1-.082-.555.405.405 0 0 1 .564-.081c.205.15.354.455.527.807.092.187.245.502.322.569.2.095.268.324.173.523a.4.4 0 0 1-.365.22zM12.136 12.824a.4.4 0 0 1-.23-.073c-.586-.412-2.802-2.52-2.916-3.555a.4.4 0 0 1 .795-.087c.066.593 1.873 2.49 2.582 2.99a.398.398 0 0 1-.231.725zM7.085 15.374a.4.4 0 0 1-.23-.073c-.533-.375-1.008-1.193-1.082-1.862a.4.4 0 0 1 .796-.087c.048.437.403 1.055.747 1.296a.4.4 0 0 1-.231.726zM8.044 19.972A.43.43 0 0 1 8 19.969c-.747-.082-2.798-2.06-3.09-2.474a.399.399 0 0 1 .096-.556.401.401 0 0 1 .558.096c.315.446 2.126 2.056 2.53 2.141a.414.414 0 0 1 .33.456.388.388 0 0 1-.38.34zM13.038 16.502c-.015 0-.03-.001-.044-.003-.92-.1-3.228-1.652-3.772-2.422a.4.4 0 1 1 .655-.46c.412.584 2.526 2.014 3.205 2.088a.4.4 0 0 1-.044.797z"/>
        <path fill-rule="nonzero" d="M.78 23.966a.776.776 0 0 1-.556-.223c-.221-.221-.284-.558-.164-.88 1.426-3.817 9.465-15.57 11.497-16.299.596-.213 1.247-.201 1.934.037.339.147.614.236.82.298a.4.4 0 0 1 .277.316c.138.813.133 1.623.11 2.116.53-.025 1.427-.03 2.301.142a.4.4 0 0 1 .313.306l.061.29c.05.242.106.517.188.818.138.574.116 1.111-.063 1.608-.718 1.995-12.542 9.978-16.393 11.41a.936.936 0 0 1-.326.061zM12.446 7.21c-.214 0-.42.035-.62.107C10.322 7.856 2.368 18.97.81 23.142a.246.246 0 0 0-.008.024.547.547 0 0 1 .023-.008c3.536-1.316 15.288-9.174 15.92-10.933.128-.353.14-.726.041-1.14-.085-.315-.144-.602-.196-.856l-.004-.018c-1.133-.174-2.264-.054-2.276-.053a.398.398 0 0 1-.442-.44c.002-.01.112-1.052-.032-2.131-.185-.062-.4-.14-.637-.244a2.323 2.323 0 0 0-.752-.134z"/>
    </g>
</svg>
